<svg width="28" height="27" viewBox="0 0 28 27" fill="none" xmlns="http://www.w3.org/2000/svg">
<path d="M26.6947 4.26626L23.0759 0.779855C22.8206 0.532607 22.5172 0.336432 22.183 0.2026C21.8489 0.068768 21.4906 -8.36201e-05 21.1288 7.62144e-08C20.3914 7.62144e-08 19.6982 0.27852 19.1784 0.779855L15.2842 4.53495C15.0278 4.78112 14.8244 5.07371 14.6856 5.39592C14.5468 5.71813 14.4754 6.0636 14.4755 6.4125C14.4755 7.12354 14.7643 7.79199 15.2842 8.29333L18.1318 11.0392C17.4652 12.4559 16.5385 13.7447 15.3964 14.8434C14.2571 15.9475 12.9207 16.8444 11.4513 17.491L8.60376 14.7451C8.34848 14.4979 8.04505 14.3017 7.71092 14.1679C7.37678 14.0341 7.01851 13.9652 6.6567 13.9653C5.91933 13.9653 5.22614 14.2438 4.70624 14.7451L0.808728 18.497C0.552011 18.7436 0.348399 19.0367 0.209606 19.3595C0.070813 19.6823 -0.000421078 20.0284 1.87243e-06 20.3778C1.87243e-06 21.0888 0.288833 21.7573 0.808728 22.2586L4.42081 25.7417C5.24992 26.5445 6.39505 27 7.57076 27C7.81882 27 8.05668 26.9803 8.29114 26.941C12.8717 26.2136 17.4148 23.8642 21.0812 20.3319C24.7443 16.8029 27.1773 12.4252 27.9418 7.99515C28.1729 6.64187 27.7074 5.24927 26.6947 4.26626Z" fill="#96E8FF" fill-opacity="0.75"/>
</svg>
