<?xml version="1.0" standalone="no"?>
<!DOCTYPE svg PUBLIC "-//W3C//DTD SVG 1.1//EN" "http://www.w3.org/Graphics/SVG/1.1/DTD/svg11.dtd" >
<svg xmlns="http://www.w3.org/2000/svg">
<metadata>Generated by IcoMoon</metadata>
<defs>
<font id="icomoon" horiz-adv-x="1024">
<font-face units-per-em="1024" ascent="960" descent="-64" />
<missing-glyph horiz-adv-x="1024" />
<glyph unicode="&#x20;" horiz-adv-x="512" d="" />
<glyph unicode="&#xe900;" glyph-name="arrow-left" d="M27.582 463.085c-8.331-8.331-8.331-21.839 0-30.17l135.765-135.764c8.331-8.332 21.839-8.332 30.17 0s8.332 21.839 0 30.17l-120.679 120.68 120.679 120.68c8.332 8.331 8.332 21.839 0 30.17s-21.839 8.331-30.17 0l-135.765-135.765zM1024 469.333h-981.333v-42.667h981.333v42.667z" />
<glyph unicode="&#xe901;" glyph-name="arrow-right" d="M996.42 432.915c8.329 8.331 8.329 21.839 0 30.17l-135.765 135.765c-8.333 8.331-21.841 8.331-30.17 0-8.333-8.331-8.333-21.839 0-30.17l120.678-120.68-120.678-120.68c-8.333-8.331-8.333-21.839 0-30.17 8.329-8.332 21.837-8.332 30.17 0l135.765 135.764zM0 426.667h981.333v42.667h-981.333v-42.667z" />
<glyph unicode="&#xe902;" glyph-name="arrow-right-short" d="M1009.004 411.796c19.994 19.995 19.994 52.413 0 72.408l-325.837 325.835c-19.994 19.995-52.408 19.995-72.407 0-19.994-19.995-19.994-52.413 0-72.408l289.633-289.631-289.633-289.633c-19.994-19.994-19.994-52.408 0-72.407 19.999-19.994 52.413-19.994 72.407 0l325.837 325.836zM0 396.8h972.8v102.4h-972.8v-102.4z" />
<glyph unicode="&#xe904;" glyph-name="check" d="M74.545 398.562l297.531-298.099 571.316 570.752-82.021 80.888-489.295-488.727-216.646 216.644-80.886-81.457z" />
<glyph unicode="&#xe905;" glyph-name="email" d="M170.667 893.217c-45.263 0-88.673-18.763-120.679-52.16s-49.987-78.695-49.987-125.927v-17.898l512-287.699 512 287.61v17.987c0 47.232-17.982 92.529-49.989 125.927-32.002 33.398-75.415 52.16-120.676 52.16h-682.668zM1024 596.079l-491.774-276.302c-6.22-3.491-13.165-5.32-20.226-5.32s-14.007 1.83-20.222 5.32l-491.778 276.302v-415.21c0-47.233 17.981-92.53 49.987-125.925 32.006-33.4 75.416-52.162 120.679-52.162h682.668c45.261 0 88.674 18.761 120.676 52.162 32.007 33.396 49.989 78.692 49.989 125.925v415.21z" />
<glyph unicode="&#xe906;" glyph-name="facebook" d="M390.282-64v480.49h-126.968v173h126.968v147.764c0 116.114 75 222.745 247.816 222.745 69.971 0 121.71-6.712 121.71-6.712l-4.076-161.553c0 0-52.768 0.514-110.349 0.514-62.321 0-72.303-28.739-72.303-76.438v-126.321h187.606l-8.163-173h-179.443v-480.49h-182.798z" />
<glyph unicode="&#xe907;" glyph-name="instagram" d="M511.862 618.739c-94.015 0-170.736-76.724-170.736-170.739s76.721-170.739 170.736-170.739c94.015 0 170.736 76.724 170.736 170.739s-76.721 170.739-170.736 170.739zM1023.941 448c0 70.703 0.641 140.768-3.329 211.342-3.97 81.976-22.671 154.729-82.613 214.674-60.071 60.073-132.696 78.645-214.668 82.616-70.703 3.971-140.765 3.33-211.339 3.33-70.703 0-140.765 0.64-211.339-3.33-81.974-3.971-154.726-22.671-214.67-82.616-60.072-60.073-78.644-132.698-82.614-214.674-3.971-70.703-3.33-140.765-3.33-211.342s-0.64-140.768 3.33-211.342c3.971-81.976 22.671-154.729 82.614-214.674 60.071-60.071 132.695-78.646 214.67-82.616 70.703-3.97 140.765-3.329 211.339-3.329 70.703 0 140.765-0.641 211.339 3.329 81.973 3.97 154.723 22.671 214.668 82.616 60.071 60.074 78.643 132.699 82.613 214.674 4.099 70.574 3.329 140.639 3.329 211.342zM511.862 185.294c-145.376 0-262.701 117.327-262.701 262.706s117.325 262.705 262.701 262.705c145.376 0 262.7-117.327 262.7-262.705s-117.324-262.706-262.7-262.706zM785.323 660.111c-33.944 0-61.352 27.41-61.352 61.353s27.408 61.353 61.352 61.353c33.941 0 61.352-27.41 61.352-61.353 0.009-8.060-1.571-16.043-4.652-23.491-3.078-7.448-7.598-14.216-13.297-19.915s-12.466-10.218-19.912-13.299c-7.449-3.078-15.433-4.658-23.491-4.649z" />
<glyph unicode="&#xe908;" glyph-name="marker" d="M105.931 557.715v0zM187.736 316.344l-14.014-10.74 0.871-1.137 1.043-0.98 12.1 12.856zM200.619 299.813l13.414 11.479-0.079 0.092-13.335-11.571zM512-64l-13.413-11.479 13.413-15.672 13.413 15.672-13.413 11.479zM823.529 299.995l13.413-11.479 0.118 0.139-13.531 11.34zM836.264 316.344l13.981-10.782 1.81 2.346 0.945 2.807-16.735 5.628zM836.301 316.453l-14.015 10.738-1.785-2.33-0.934-2.781 16.734-5.627zM918.069 557.715v0zM659.661 557.715l17.655-0.023v0.023h-17.655zM511.979 977.655c-112.278-0.131-219.955-44.375-299.398-123.078l24.851-25.085c72.806 72.129 171.554 112.733 274.589 112.853l-0.042 35.31zM212.581 854.577c-79.449-78.71-124.172-185.458-124.305-296.841l35.31-0.042c0.121 101.925 41.044 199.675 113.845 271.799l-24.851 25.085zM88.276 557.741c-0.135-91.065 29.892-179.64 85.446-252.137l28.028 21.478c-50.838 66.343-78.286 147.355-78.163 230.607l-35.31 0.053zM187.736 316.344c-14.011-10.743-14.011-10.743-14.011-10.743s0 0 0.001 0 0.001-0.002 0.002-0.002 0.004-0.005 0.007-0.009 0.014-0.018 0.025-0.032c0.022-0.028 0.053-0.071 0.095-0.124 0.083-0.108 0.204-0.267 0.358-0.468 0.309-0.403 0.752-0.978 1.288-1.675 1.073-1.395 2.524-3.28 4.035-5.233 2.777-3.591 6.425-8.289 7.751-9.816l26.67 23.142c0.030-0.035-0.142 0.168-0.625 0.772-0.425 0.53-0.967 1.216-1.596 2.018-1.255 1.6-2.78 3.563-4.268 5.487-1.484 1.919-2.914 3.776-3.975 5.155-0.53 0.689-0.966 1.257-1.27 1.653-0.152 0.198-0.27 0.353-0.351 0.457-0.040 0.053-0.071 0.092-0.091 0.118-0.010 0.014-0.018 0.025-0.023 0.030-0.002 0.004-0.004 0.007-0.006 0.009-0.001 0-0.001 0-0.001 0 0 0.002 0 0.002 0 0.002s0 0-14.011-10.741zM187.206 288.332l311.381-363.811 26.825 22.959-311.38 363.813-26.826-22.961zM525.413-75.479l311.529 363.995-26.827 22.961-311.527-363.997 26.825-22.959zM837.060 288.655c1.091 1.303 4.573 5.779 7.398 9.423 1.499 1.933 2.945 3.803 4.017 5.189 0.535 0.694 0.978 1.266 1.287 1.667 0.154 0.2 0.274 0.357 0.357 0.464 0.041 0.053 0.072 0.094 0.095 0.122 0.011 0.014 0.018 0.025 0.023 0.032 0.004 0.004 0.005 0.005 0.007 0.007 0 0.002 0.002 0.002 0.002 0.002 0 0.002 0 0.002 0 0.002s0 0-13.981 10.782c-13.981 10.78-13.981 10.78-13.981 10.78s0 0 0 0 0-0.002-0.002-0.002c0-0.002-0.002-0.004-0.005-0.007-0.005-0.007-0.012-0.018-0.023-0.032-0.021-0.026-0.051-0.065-0.092-0.118-0.081-0.106-0.201-0.26-0.353-0.457-0.305-0.397-0.745-0.964-1.276-1.653-1.063-1.375-2.496-3.229-3.978-5.141-1.485-1.914-3.008-3.874-4.255-5.468-0.625-0.798-1.167-1.487-1.592-2.025-0.214-0.27-0.388-0.487-0.521-0.653-0.148-0.184-0.2-0.247-0.189-0.233l27.064-22.68zM852.999 310.715l0.037 0.111-33.469 11.253-0.037-0.109 33.469-11.255zM850.315 305.715c55.527 72.466 85.539 161.001 85.409 252.024l-35.31-0.051c0.12-83.212-27.316-164.184-78.128-230.497l28.029-21.476zM935.724 557.736c-0.132 111.383-44.856 218.131-124.305 296.841l-24.851-25.085c72.801-72.124 113.724-169.873 113.846-271.799l35.31 0.042zM811.419 854.577c-79.443 78.703-187.12 122.947-299.398 123.078l-0.042-35.31c103.036-0.12 201.783-40.724 274.589-112.853l24.851 25.085zM512 429.084c-25.75 0-50.907 7.565-72.291 21.719l-19.491-29.444c27.182-17.992 59.122-27.586 91.782-27.586v35.31zM439.709 450.804c-21.382 14.154-38.022 34.255-47.842 57.739l-32.577-13.621c12.533-29.975 33.744-55.568 60.928-73.562l19.491 29.444zM391.867 508.543c-9.818 23.485-12.385 49.316-7.382 74.235l-34.62 6.951c-6.391-31.834-3.109-64.83 9.424-94.807l32.577 13.621zM384.486 582.778c5.003 24.92 17.359 47.833 35.528 65.834l-24.851 25.084c-23.132-22.916-38.903-52.134-45.296-83.968l34.62-6.951zM420.013 648.612c18.171 18.001 41.343 30.279 66.594 35.256l-6.827 34.643c-32.037-6.313-61.486-21.899-84.618-44.814l24.851-25.084zM486.607 683.868c25.25 4.975 51.422 2.421 75.199-7.336l13.406 32.666c-30.189 12.389-63.396 15.627-95.432 9.313l6.827-34.643zM561.805 676.532c23.774-9.756 44.067-26.267 58.333-47.418l29.276 19.744c-18.185 26.963-44.014 47.953-74.203 60.34l-13.406-32.666zM620.138 629.114c14.265-21.149 21.868-45.995 21.868-71.399h35.31c0 32.461-9.717 64.18-27.902 91.143l-29.276-19.744zM642.006 557.736c-0.042-34.053-13.715-66.735-38.073-90.866l24.851-25.084c31.004 30.716 48.478 72.395 48.532 115.906l-35.31 0.044zM603.932 466.87c-24.362-24.136-57.429-37.743-91.953-37.786l0.042-35.31c43.769 0.053 85.764 17.302 116.762 48.011l-24.851 25.084z" />
<glyph unicode="&#xe909;" glyph-name="minus" d="M972.273 338.286v184.32h-921.599v-184.32h921.599z" />
<glyph unicode="&#xe90a;" glyph-name="phone" d="M976.263 785.691l-132.345 127.503c-9.337 9.042-20.432 16.217-32.655 21.111-12.219 4.894-25.322 7.412-38.554 7.409-26.968 0-52.319-10.186-71.329-28.52l-142.416-137.329c-9.377-9.003-16.816-19.703-21.892-31.487s-7.687-24.418-7.684-37.178c0-26.004 10.562-50.45 29.575-68.785l104.141-100.42c-24.379-51.811-58.269-98.944-100.037-139.125-41.666-40.379-90.54-73.179-144.278-96.827l-104.139 100.421c-9.336 9.040-20.433 16.216-32.652 21.109s-25.322 7.413-38.554 7.409c-26.967 0-52.318-10.185-71.331-28.518l-142.538-137.212c-9.389-9.019-16.835-19.738-21.911-31.543s-7.681-24.463-7.666-37.241c0-26.002 10.563-50.45 29.576-68.784l132.099-127.382c30.322-29.36 72.201-46.018 115.198-46.018 9.072 0 17.771 0.72 26.345 2.158 167.518 26.602 333.665 112.523 467.751 241.704 133.965 129.061 222.943 289.159 250.902 451.173 8.452 49.491-8.572 100.421-45.608 136.371z" />
<glyph unicode="&#xe90b;" glyph-name="plus" d="M553.316 539.022v418.702h-143.36v-418.702h-409.6v-143.36h409.6v-405.049h143.36v405.049h414.154v143.36h-414.154z" />
<glyph unicode="&#xe90c;" glyph-name="triangle" d="M501.404 216.381l-474.496 475.429h948.999l-474.502-475.429z" />
<glyph unicode="&#xe90d;" glyph-name="twitter" d="M1024 745.146c-37.656-15.618-78.111-26.17-120.638-30.94 43.881 24.575 76.711 63.253 92.363 108.817-41.227-22.919-86.348-39.052-133.4-47.697-31.642 31.621-73.552 52.58-119.225 59.622s-92.552-0.224-133.36-20.674c-40.809-20.449-73.261-52.936-92.32-92.416s-23.659-83.746-13.085-125.924c-83.536 3.925-165.256 24.247-239.859 59.646-74.601 35.399-140.417 85.084-193.174 145.831-18.039-29.125-28.412-62.893-28.412-98.855-0.020-32.375 8.498-64.254 24.798-92.809 16.301-28.554 39.88-52.901 68.645-70.881-33.36 0.993-65.984 9.43-95.157 24.609v-2.533c-0.003-45.408 16.778-89.417 47.497-124.561s73.483-59.261 121.035-68.254c-30.947-7.838-63.393-8.993-94.887-3.377 13.417-39.070 39.551-73.234 74.744-97.712 35.192-24.478 77.684-38.042 121.522-38.794-74.418-54.679-166.327-84.34-260.937-84.208-16.759-0.004-33.505 0.913-50.149 2.743 96.036-57.791 207.828-88.462 322.001-88.344 386.491 0 597.778 299.605 597.778 559.449 0 8.442-0.227 16.968-0.632 25.41 41.098 27.817 76.573 62.264 104.764 101.725l0.089 0.127z" />
<glyph unicode="&#xe90e;" glyph-name="play_circle_filled" d="M426 234.667l256 192-256 192v-384zM512 852.667q176 0 301-125t125-301-125-301-301-125-301 125-125 301 125 301 301 125z" />
<glyph unicode="&#xe90f;" glyph-name="pause_circle_filled" d="M640 256.667v340h-86v-340h86zM470 256.667v340h-86v-340h86zM512 852.667q176 0 301-125t125-301-125-301-301-125-301 125-125 301 125 301 301 125z" />
<glyph unicode="&#xe910;" glyph-name="chevron-donw" d="M511.999 128c-18.353 0-36.703 7.683-50.694 23.017l-440.298 482.762c-28.009 30.71-28.009 80.501 0 111.198 27.997 30.697 73.4 30.697 101.411 0l389.582-427.175 389.583 427.16c28.009 30.697 73.405 30.697 101.402 0 28.022-30.697 28.022-80.488 0-111.197l-440.292-482.764c-13.998-15.336-32.348-23.002-50.693-23.002z" />
<glyph unicode="&#xe911;" glyph-name="chevron-right" d="M832 447.999c0-18.353-7.683-36.703-23.017-50.694l-482.762-440.298c-30.71-28.008-80.501-28.008-111.198 0-30.697 27.997-30.697 73.4 0 101.411l427.175 389.582-427.16 389.583c-30.697 28.009-30.697 73.406 0 101.401 30.697 28.022 80.488 28.022 111.197 0l482.764-440.291c15.336-13.998 23.002-32.348 23.002-50.693z" />
<glyph unicode="&#xe912;" glyph-name="search" d="M1012.879 0.748l-275.302 275.313c60.36 72.371 96.783 165.366 96.783 266.759 0 230.038-187.141 417.181-417.179 417.181s-417.181-187.144-417.181-417.181c0-230.038 187.144-417.179 417.181-417.179 101.393 0 194.387 36.424 266.759 96.783l275.313-275.313c7.404-7.404 17.111-11.11 26.813-11.11 9.697 0 19.41 3.707 26.813 11.11 14.817 14.822 14.817 38.83 0 53.637zM75.851 542.819c0 188.206 153.105 341.33 341.33 341.33 188.223 0 341.331-153.124 341.331-341.33 0-188.208-153.108-341.331-341.331-341.331-188.225 0-341.33 153.124-341.33 341.331z" />
<glyph unicode="&#xe913;" glyph-name="arrow-left-short" d="M195.994 512l310.835 310.835-72.397 72.397-434.432-434.432 434.432-434.432 72.397 72.397-310.835 310.835h828.006v102.4h-828.006z" />
<glyph unicode="&#xe914;" glyph-name="dot" d="M768 448c0-141.385-114.615-256-256-256s-256 114.615-256 256c0 141.385 114.615 256 256 256s256-114.615 256-256z" />
<glyph unicode="&#xe9d7;" glyph-name="star-empty" d="M1024 550.15l-353.78 51.408-158.22 320.582-158.216-320.582-353.784-51.408 256-249.538-60.432-352.352 316.432 166.358 316.432-166.358-60.434 352.352 256.002 249.538zM512 193.702l-223.462-117.48 42.676 248.83-180.786 176.222 249.84 36.304 111.732 226.396 111.736-226.396 249.836-36.304-180.788-176.222 42.678-248.83-223.462 117.48z" />
<glyph unicode="&#xe9d9;" glyph-name="star-full" d="M1024 550.15l-353.78 51.408-158.22 320.582-158.216-320.582-353.784-51.408 256-249.538-60.432-352.352 316.432 166.358 316.432-166.358-60.434 352.352 256.002 249.538z" />
<glyph unicode="&#xf0e1;" glyph-name="linkedin" horiz-adv-x="878" d="M199.429 593.714v-566.286h-188.571v566.286h188.571zM211.429 768.571c0.571-54.286-40.571-97.714-106.286-97.714v0h-1.143c-63.429 0-104 43.429-104 97.714 0 55.429 42.286 97.714 106.286 97.714 64.571 0 104.571-42.286 105.143-97.714zM877.714 352v-324.571h-188v302.857c0 76-27.429 128-95.429 128-52 0-82.857-34.857-96.571-68.571-4.571-12.571-6.286-29.143-6.286-46.286v-316h-188c2.286 513.143 0 566.286 0 566.286h188v-82.286h-1.143c24.571 38.857 69.143 95.429 170.857 95.429 124 0 216.571-81.143 216.571-254.857z" />
<glyph unicode="&#xf16a;" glyph-name="youtube" d="M406.286 306.286l276.571 142.857-276.571 144.571v-287.429zM512 798.857c215.429 0 358.286-10.286 358.286-10.286 20-2.286 64-2.286 102.857-43.429 0 0 31.429-30.857 40.571-101.714 10.857-82.857 10.286-165.714 10.286-165.714v-77.714s0.571-82.857-10.286-165.714c-9.143-70.286-40.571-101.714-40.571-101.714-38.857-40.571-82.857-40.571-102.857-42.857 0 0-142.857-10.857-358.286-10.857v0c-266.286 2.286-348 10.286-348 10.286-22.857 4-74.286 2.857-113.143 43.429 0 0-31.429 31.429-40.571 101.714-10.857 82.857-10.286 165.714-10.286 165.714v77.714s-0.571 82.857 10.286 165.714c9.143 70.857 40.571 101.714 40.571 101.714 38.857 41.143 82.857 41.143 102.857 43.429 0 0 142.857 10.286 358.286 10.286v0z" />
<glyph unicode="&#xf1d8;" glyph-name="telegram" horiz-adv-x="1025" d="M1008 944.571c12-8.571 17.714-22.286 15.429-36.571l-146.286-877.714c-1.714-10.857-8.571-20-18.286-25.714-5.143-2.857-11.429-4.571-17.714-4.571-4.571 0-9.143 1.143-13.714 2.857l-258.857 105.714-138.286-168.571c-6.857-8.571-17.143-13.143-28-13.143-4 0-8.571 0.571-12.571 2.286-14.286 5.143-24 18.857-24 34.286v199.429l493.714 605.143-610.857-528.571-225.714 92.571c-13.143 5.143-21.714 17.143-22.857 31.429-0.571 13.714 6.286 26.857 18.286 33.714l950.857 548.571c5.714 3.429 12 5.143 18.286 5.143 7.429 0 14.857-2.286 20.571-6.286z" />
</font>
</defs>
</svg>
