<svg width="1512" height="1032" viewBox="0 0 1512 1032" fill="none" xmlns="http://www.w3.org/2000/svg">
<g clip-path="url(#clip0_310_3)">
<path d="M829.37 586.283L829.367 586.279L829.365 586.274C828.879 585.4 828.581 584.566 828.423 583.776C828.267 582.991 828.237 582.187 828.338 581.347C828.545 579.635 829.286 577.845 830.501 576.019C832.92 572.383 837.06 568.829 841.854 565.483C846.641 562.141 852.054 559.025 857.001 556.253C857.845 555.779 858.676 555.316 859.488 554.863C863.428 552.666 866.923 550.718 869.337 549.092L869.338 549.091C878.171 543.05 887.213 539.549 896.134 536.094C896.419 535.983 896.703 535.873 896.987 535.763C906.179 532.2 915.234 528.602 923.752 522.228L923.754 522.227C931.335 516.448 940.636 512.826 948.976 512.068C950.626 512.109 952.616 512.165 953.968 512.939C954.872 513.513 955.209 514.263 955.311 514.926C955.43 515.697 955.308 516.754 954.874 518.014C954.024 520.483 952.159 523.196 949.989 525.155C947.793 527.02 945.312 528.545 942.762 530.051C942.431 530.247 942.098 530.442 941.765 530.638C939.538 531.947 937.281 533.273 935.153 534.823L935.153 534.823C928.762 539.513 923.982 546.255 919.292 552.869C918.725 553.669 918.16 554.467 917.592 555.259C912.331 562.609 906.942 569.484 899.249 572.942L899.248 572.943C894.133 575.313 889.236 575.577 884.358 575.577C883.663 575.577 882.969 575.571 882.274 575.566C878.096 575.533 873.907 575.5 869.616 576.642L869.616 576.642C865.958 577.619 862.383 579.373 858.806 581.29C857.918 581.766 857.03 582.252 856.14 582.739C853.444 584.214 850.736 585.696 847.968 586.933L847.968 586.933L847.965 586.934C844.314 588.672 840.319 589.773 836.89 589.783C835.174 589.789 833.611 589.521 832.309 588.935C830.997 588.344 829.999 587.451 829.37 586.283Z" stroke="#51D6FB" stroke-opacity="0.1" stroke-width="2" stroke-miterlimit="10"/>
<path d="M937.999 548.906L938.001 548.904C938.623 547.922 939.243 546.934 939.867 545.94C945.075 537.64 950.487 529.016 958.528 521.763C958.529 521.762 958.529 521.762 958.529 521.762L958.709 522.37C960.429 520.79 962.196 519.414 964.334 517.845L937.999 548.906ZM937.999 548.906C936.766 550.889 935.512 553.012 934.211 555.212C928.412 565.021 921.694 576.384 911.896 583.9C906.249 588.203 900.558 590.486 894.676 591.956C887.532 593.69 880.819 593.396 873.679 593.083C871.007 592.966 868.275 592.846 865.439 592.829C860.839 592.711 856.326 593.003 851.621 594.308C843.867 596.184 836.174 600.327 827.966 604.749C824.9 606.4 821.763 608.09 818.523 609.715L818.523 609.715C809.969 614.056 802.104 615.875 795.801 615.385C792.649 615.141 789.898 614.32 787.653 612.96C785.401 611.597 783.693 609.715 782.59 607.402C781.092 604.262 780.366 601.002 780.371 597.572C780.812 586.91 785.626 571.922 800.219 561.367C803.584 558.936 808.212 557.487 812.895 556.134C813.302 556.016 813.71 555.899 814.118 555.782C818.378 554.559 822.591 553.349 825.791 551.474L825.792 551.473C830.008 548.959 834.076 546.467 838.009 544.057C845.351 539.559 852.226 535.348 858.727 531.814L858.728 531.813M937.999 548.906L858.728 531.813M858.728 531.813C867.346 527.018 875.488 521.597 883.529 516.243M858.728 531.813L883.529 516.243M883.529 516.243C884.446 515.633 885.361 515.024 886.276 514.416M883.529 516.243L886.276 514.416M886.276 514.416C895.215 508.478 904.083 502.721 913.409 498.092L886.276 514.416ZM972.444 511.763C969.63 513.507 966.815 515.252 964.169 517.224L913.409 498.092C917.873 495.881 922.591 494.787 927.338 493.741C927.566 493.691 927.793 493.641 928.021 493.591C932.536 492.598 937.068 491.602 941.393 489.677C942.935 489.103 944.06 488.517 945.51 487.532L945.512 487.531C958.036 478.733 971.564 474.42 983.13 474.311L983.134 474.311C986.419 474.193 989.389 474.678 991.786 476.326L991.837 476.361L991.887 476.362C991.96 476.364 992.018 476.366 992.065 476.368L992.069 476.385L992.221 476.518C993.697 477.813 994.435 479.511 994.694 481.353C994.963 483.271 994.748 485.56 994.078 488.022C992.744 492.927 989.711 498.125 985.991 501.762L985.988 501.766C982.796 505.015 979.128 507.551 975.36 509.941C974.393 510.554 973.418 511.158 972.444 511.763Z" stroke="#51D6FB" stroke-opacity="0.1" stroke-width="2" stroke-miterlimit="10"/>
<path d="M915.902 600.928L915.903 600.928C931.877 589.784 941.654 571.609 949.546 556.939C951.147 553.962 952.67 551.13 954.152 548.53L954.153 548.528C954.891 547.253 955.632 545.96 956.382 544.652C963.342 532.516 971.008 519.149 982.498 507.586C982.498 507.586 982.499 507.586 982.499 507.586L982.685 508.191C985.084 505.756 987.905 503.332 990.396 501.316L915.902 600.928ZM915.902 600.928C906.859 607.333 898.198 609.807 890.093 611.051C881.259 612.378 873.138 611.606 864.703 610.803C860.741 610.427 856.709 610.043 852.502 609.868C846.53 609.504 840.371 610.179 834.354 611.482L834.352 611.483C823.488 614.034 812.637 619.916 801.004 626.221C797.234 628.265 793.381 630.354 789.418 632.388C775.483 639.509 763.601 642.103 754.393 641.113C749.789 640.618 745.864 639.228 742.691 637.074C739.522 634.923 737.132 632.03 735.556 628.561C733.57 623.348 732.039 618.137 732.366 612.414L732.367 612.403L732.367 612.391C732.964 596.401 737.092 571.89 759.012 555.662C763.677 552.272 770.962 550.749 778.37 549.326C778.767 549.249 779.165 549.174 779.562 549.098C786.556 547.761 793.532 546.427 798.294 543.58L798.295 543.579C804.214 539.997 809.906 536.411 815.465 532.909C826.947 525.675 837.859 518.801 849.027 513.064C862.243 506.322 874.254 496.999 886.181 487.607C886.655 487.234 887.129 486.861 887.603 486.487C899.055 477.465 910.47 468.471 922.861 461.707L922.862 461.706C928.255 458.744 934.489 458.126 940.823 457.821C941.785 457.775 942.75 457.736 943.714 457.697C949.085 457.481 954.443 457.264 959.297 455.797L915.902 600.928Z" stroke="#51D6FB" stroke-opacity="0.1" stroke-width="2" stroke-miterlimit="10"/>
<path d="M970.425 548.88L970.626 549.347L970.425 548.88C968.495 552.304 966.498 556.088 964.382 560.096C954.157 579.469 941.162 604.088 919.585 618.681C907.841 626.572 895.825 629.415 885.501 630.408C877.442 631.145 869.939 630.581 862.476 629.755C860.662 629.554 858.85 629.338 857.033 629.121C851.378 628.445 845.671 627.763 839.702 627.528C831.949 626.904 824.477 627.554 816.817 629.253L816.816 629.253C801.402 632.702 785.833 641.249 768.406 650.815C765.784 652.254 763.119 653.717 760.406 655.189L760.406 655.189C741.377 665.534 725.575 668.902 713.49 667.3C707.448 666.5 702.344 664.458 698.235 661.439C694.123 658.418 691.031 654.435 688.984 649.785L688.98 649.775L688.975 649.765C685.853 643.088 684.229 635.682 684.525 627.704C684.929 617.125 685.973 603.296 690.567 589.398C695.162 575.497 703.321 561.486 717.992 550.623L717.993 550.623C724.124 546.072 734.068 544.438 744.156 542.96C744.685 542.883 745.215 542.806 745.745 542.728C755.279 541.341 764.759 539.961 770.97 536.211L770.97 536.21C779.242 531.179 787.12 526.116 794.816 521.171C810.004 511.41 824.483 502.105 839.879 494.398C856.841 485.98 872.027 473.35 887.039 460.494C888.098 459.588 889.155 458.68 890.212 457.773C904.154 445.808 918.043 433.89 933.184 425.187C939.713 421.484 947.368 421.416 955.183 421.91C956.588 421.998 958 422.105 959.41 422.212C965.826 422.699 972.226 423.184 978.034 421.949L978.038 421.948L978.042 421.947L978.061 421.941C980.833 421.175 983.641 420.399 985.841 418.753C1009.17 402.105 1033.08 395.785 1053.01 396.305C1055.98 396.382 1058.99 396.671 1061.78 397.451C1064.55 398.222 1067.09 399.47 1069.17 401.443C1069.19 401.48 1069.21 401.508 1069.23 401.529C1069.28 401.598 1069.33 401.64 1069.37 401.666C1069.44 401.717 1069.52 401.754 1069.57 401.778C1069.59 401.787 1069.61 401.795 1069.62 401.803L1069.74 401.932C1072.4 404.708 1073.86 408.356 1074.41 412.442C1074.96 416.586 1074.6 421.325 1073.46 426.244C1071.2 436.072 1065.9 446.302 1059.26 453.369L1059.26 453.37C1052.96 460.138 1045.85 465.156 1038.55 469.917C1037.13 470.848 1035.7 471.769 1034.26 472.692C1028.36 476.483 1022.43 480.296 1016.81 484.902L1016.81 484.904L1016.81 484.905L1016.8 484.911C1013.26 487.975 1009.71 491.048 1006.62 494.347C992.405 508.871 983.382 525.327 975.104 540.425C973.528 543.3 971.979 546.126 970.425 548.88Z" stroke="#51D6FB" stroke-opacity="0.1" stroke-width="2" stroke-miterlimit="10"/>
<path d="M923.618 635.862L923.619 635.862C951.01 617.888 967.2 586.288 979.555 562.17C982.05 557.3 984.389 552.736 986.631 548.65C988.286 545.6 989.95 542.465 991.646 539.268C1001.7 520.32 1012.91 499.194 1030.3 480.727C1034.06 476.569 1038.29 472.64 1042.95 468.725C1042.95 468.724 1042.95 468.724 1042.95 468.724L1043.12 469.345C1050.3 463.217 1057.96 458.257 1065.6 453.312C1076.19 446.454 1086.74 439.625 1095.91 429.75C1112.39 412.135 1122 378.629 1108.2 364.043L923.618 635.862ZM923.618 635.862C908.463 645.848 893.464 648.848 880.923 649.58C871.294 650.07 862.401 649.095 853.499 647.881C851.904 647.663 850.308 647.438 848.708 647.212C841.382 646.177 833.959 645.128 826.042 644.747C816.555 644.073 807.776 644.694 798.472 646.789L798.472 646.789C778.923 651.219 758.99 662.254 735.927 675.022C734.187 675.985 732.429 676.958 730.653 677.939C706.473 691.309 686.655 695.5 671.601 693.359C664.073 692.289 657.747 689.637 652.667 685.772C647.588 681.906 643.776 676.844 641.249 670.981C637.662 662.272 635.253 653.093 635.88 642.773L635.88 642.767L635.881 642.761L635.883 642.715C636.557 629.37 637.444 611.794 642.729 594.143C648.02 576.475 657.734 558.687 676.113 545.078C683.738 539.471 696.358 537.785 709.133 536.287C709.725 536.217 710.318 536.148 710.911 536.079C723.065 534.661 735.146 533.253 742.848 528.575C753.389 522.208 763.428 515.677 773.309 509.249C791.87 497.174 809.877 485.459 829.622 475.864C850.352 465.885 868.615 449.997 886.655 433.67C888.204 432.268 889.752 430.862 891.299 429.457C907.774 414.495 924.222 399.559 942.379 388.788L942.243 388.198L942.379 388.787C950.017 384.24 959.198 384.738 968.598 386.045C970.379 386.293 972.167 386.57 973.955 386.846C981.585 388.027 989.187 389.204 996.006 388.088L996.009 388.088L996.012 388.087C999.666 387.332 1002.49 386.552 1005.46 384.486L1005.46 384.485C1034.38 363.82 1063.65 356.316 1087.59 357.366L1087.59 357.366C1094.8 357.555 1102.17 358.805 1107.47 363.884L923.618 635.862Z" stroke="#51D6FB" stroke-opacity="0.1" stroke-width="2" stroke-miterlimit="10"/>
<path d="M1122.17 318.03C1094.24 316.656 1059.15 325.344 1024.97 349.856C1021.64 352.117 1018.07 353.305 1013.89 353.622C1006.37 354.434 997.873 352.605 989.263 350.752C976.003 347.898 962.469 344.984 951.792 351.566C930.497 364.587 911.355 382.645 892.26 400.659C869.324 422.297 846.454 443.872 820 456.577C795.292 468.346 773.103 482.948 750.132 498.063C738.738 505.562 727.151 513.186 714.97 520.654C705.809 526.242 691.156 527.671 676.36 529.113C660.257 530.683 643.984 532.27 634.432 539.252L1122.17 318.03ZM1122.17 318.03C1130.77 318.469 1139.6 319.982 1146.1 326.344M1122.17 318.03L1146.1 326.344M1146.1 326.344C1146.12 326.452 1146.25 326.562 1146.38 326.672C1146.51 326.782 1146.64 326.893 1146.66 327C1163.25 344.517 1151.69 384.997 1132.44 405.844C1121.29 417.927 1108.57 426.168 1095.89 434.391C1086.69 440.355 1077.5 446.31 1068.94 453.715C1063.55 458.271 1058.65 463.053 1054.17 467.847L1146.1 326.344ZM595.156 599.389C601.155 577.988 612.52 556.354 634.594 539.882C643.715 533.215 659.02 531.482 674.487 529.964C675.147 529.899 675.808 529.835 676.469 529.77C691.246 528.33 705.927 526.899 715.118 521.292L715.119 521.292C727.31 513.818 738.902 506.19 750.298 498.691C773.263 483.579 795.436 468.988 820.134 457.223L820.135 457.223C844.399 445.569 865.647 426.463 886.676 406.703C888.598 404.897 890.518 403.086 892.439 401.274C911.536 383.259 930.662 365.215 951.941 352.204L951.942 352.204C960.692 346.809 971.39 347.825 982.324 349.954C984.641 350.405 986.97 350.906 989.292 351.406C997.904 353.26 1006.43 355.095 1013.97 354.282C1018.18 353.963 1021.77 352.768 1025.12 350.49L1025.13 350.487C1059.28 325.996 1094.33 317.317 1122.24 318.689C1130.81 319.127 1139.54 320.636 1145.95 326.862C1145.97 326.889 1145.98 326.91 1145.99 326.925C1146.03 326.995 1146.08 327.048 1146.12 327.085C1146.15 327.12 1146.18 327.154 1146.22 327.185C1146.26 327.22 1146.3 327.251 1146.33 327.278C1146.37 327.314 1146.4 327.344 1146.43 327.37L1146.45 327.436L1146.58 327.578C1150.65 331.872 1152.94 337.508 1153.85 343.824C1154.76 350.192 1154.3 357.393 1152.7 364.791C1149.51 379.58 1141.85 394.848 1132.25 405.241C1122.65 415.644 1111.88 423.197 1100.96 430.356C1099.22 431.495 1097.48 432.625 1095.74 433.754C1086.54 439.718 1077.34 445.68 1068.76 453.095C1063.37 457.656 1058.46 462.444 1053.98 467.243L1053.98 467.243C1033.78 488.941 1021.12 513.321 1009.68 535.364C1007.25 540.037 1004.88 544.605 1002.5 549.02L1002.5 549.021C1000.04 553.639 997.469 558.79 994.724 564.293C980.295 593.216 961.024 631.845 927.287 653.708C909.423 665.176 891.481 668.544 876.292 668.998C865.091 669.238 854.818 667.902 844.586 666.299C842.663 665.998 840.741 665.687 838.815 665.376C830.493 664.031 822.086 662.672 813.131 662.003C802.285 661.077 791.817 661.871 781.251 664.159L781.25 664.159C756.854 669.63 732.21 683.401 702.846 699.81L701.577 700.519C672.235 716.928 648.485 721.895 630.556 719.188C612.605 716.477 600.575 706.088 594.572 691.996C590.176 681.517 587.329 670.342 587.92 657.811L587.921 657.805L587.921 657.799C587.936 657.394 587.951 656.984 587.966 656.572C588.545 640.924 589.31 620.244 595.156 599.389Z" stroke="#51D6FB" stroke-opacity="0.1" stroke-width="2" stroke-miterlimit="10"/>
<path d="M1169.15 381.541L1169.15 381.54C1180.32 369.43 1189.16 351.611 1192.84 334.308C1194.68 325.653 1195.21 317.201 1194.15 309.7C1193.1 302.247 1190.45 295.601 1185.78 290.526L1185.65 290.383L1185.61 290.217C1185.59 290.194 1185.56 290.166 1185.51 290.122L1185.5 290.114C1185.44 290.065 1185.35 289.989 1185.27 289.886C1185.21 289.818 1185.14 289.716 1185.08 289.57C1177.57 282.239 1167.5 280.478 1157.58 279.79C1125.28 278.084 1085.25 287.742 1045.87 316.058C1042.16 318.773 1037.7 319.947 1033.07 320.255C1024.44 320.876 1014.66 318.356 1004.8 315.816C1002.17 315.137 999.526 314.456 996.9 313.834C984.432 310.88 972.3 309.236 962.579 315.162C938.444 330.152 916.752 351.197 895.069 372.233C892.669 374.561 890.269 376.89 887.865 379.21C863.757 402.484 839.335 424.912 811.298 438.125L811.177 437.537L811.298 438.125C782.443 451.675 756.603 468.763 730.124 486.274C716.536 495.26 702.78 504.357 688.361 513.145M1169.15 381.541L688.213 512.506M1169.15 381.541C1158.17 393.559 1145.72 402.333 1133.01 410.708C1131.01 412.024 1129.01 413.329 1127.01 414.636C1116.25 421.646 1105.44 428.692 1095.32 437.471M1169.15 381.541L1169.34 382.144M688.361 513.145L688.213 512.506M688.361 513.145C688.361 513.145 688.361 513.145 688.361 513.145L688.213 512.506M688.361 513.145C677.769 519.625 660.671 521.055 643.415 522.499C642.543 522.572 641.67 522.645 640.798 522.718C622.636 524.253 604.657 526.085 594.086 534.027L594.086 534.027C568.291 553.258 555.285 578.797 548.549 604.042C542.264 627.595 541.423 650.935 540.778 668.841C540.732 670.133 540.686 671.398 540.64 672.631M688.213 512.506C677.653 518.967 660.585 520.395 643.309 521.84C624.303 523.431 605.045 525.042 593.924 533.398C543.996 570.621 541.803 631.521 540.466 668.633C540.42 669.928 540.374 671.194 540.327 672.429M540.64 672.631C540.64 672.631 540.64 672.631 540.64 672.631L540.327 672.429M540.64 672.631L540.327 672.429M540.64 672.631C540.087 687.371 543.414 700.759 548.2 713.011M540.327 672.429C539.765 687.423 543.158 701.02 547.983 713.368M547.983 713.368L548.194 712.998C548.196 713.003 548.198 713.007 548.2 713.011M547.983 713.368C562.087 746.758 603.901 762.652 672.999 723.945M547.983 713.368L548.205 713.025C548.203 713.021 548.201 713.016 548.2 713.011M548.2 713.011C555.141 729.435 568.99 741.73 589.818 745.035C610.628 748.337 638.324 742.647 672.856 723.304M672.999 723.945L672.856 723.304M672.999 723.945C707.525 704.484 735.994 688.508 764.056 682.385C776.253 679.704 788.398 678.737 800.585 679.915L763.953 681.728M672.999 723.945L672.856 723.303C672.856 723.304 672.856 723.304 672.856 723.304M672.856 723.304C707.376 703.845 735.866 687.857 763.953 681.728M763.953 681.728L764.052 682.357L763.953 681.728C763.953 681.728 763.953 681.728 763.953 681.728ZM1018.72 549.614C1015.99 554.819 1013.11 560.648 1010.04 566.893C993.468 600.532 970.951 646.245 931.259 671.568C909.971 685.139 888.991 688.442 871.579 688.627C858.831 688.72 847.264 686.917 835.784 684.82C833.817 684.461 831.853 684.093 829.885 683.724C820.372 681.942 810.789 680.147 800.525 679.255L871.654 689.288C889.082 689.103 910.09 685.796 931.41 672.205C971.16 646.845 993.717 601.047 1010.29 567.407C1013.36 561.167 1016.23 555.344 1018.96 550.148C1021.18 545.884 1023.41 541.497 1025.69 537.021C1039.11 510.635 1054.13 481.105 1078.25 454.793M1018.72 549.614C1018.72 549.613 1018.72 549.613 1018.72 549.613L1018.96 550.147L1018.72 549.614C1018.72 549.614 1018.72 549.614 1018.72 549.614ZM1018.72 549.614C1020.94 545.353 1023.17 540.97 1025.45 536.495C1038.87 510.108 1053.91 480.534 1078.06 454.19M1078.06 454.19C1078.06 454.19 1078.06 454.191 1078.06 454.191L1078.25 454.793M1078.06 454.19L1078.25 454.793M1078.06 454.19C1083.23 448.53 1089.2 442.677 1095.32 437.471M1078.25 454.793C1083.41 449.14 1089.38 443.293 1095.49 438.093M1095.49 438.093L1095.31 437.472C1095.31 437.472 1095.31 437.472 1095.32 437.471M1095.49 438.093C1105.6 429.323 1116.4 422.285 1127.16 415.274C1141.92 405.648 1156.61 396.075 1169.34 382.144M1095.49 438.093L1095.32 437.471M1169.34 382.144C1191.74 357.861 1204.86 310.606 1185.87 289.952C1185.82 289.737 1185.69 289.626 1185.56 289.515C1185.43 289.405 1185.3 289.294 1185.25 289.078L1169.34 382.144Z" stroke="#51D6FB" stroke-opacity="0.1" stroke-width="2" stroke-miterlimit="10"/>
<path d="M934.93 688.941L934.931 688.941C980.454 660.278 1005.67 608.49 1024.35 570.102C1027.97 562.674 1031.34 555.748 1034.57 549.588C1037.3 544.347 1040.03 538.941 1042.83 533.414C1057.9 503.636 1074.74 470.366 1101.74 440.589C1107.59 434.07 1114.28 427.577 1121.46 421.313C1132.95 411.275 1145.27 403.247 1157.53 395.248C1159.82 393.76 1162.1 392.274 1164.37 390.776C1178.87 381.216 1193.09 371.177 1205.62 357.343L1205.62 357.342C1218.36 343.523 1228.36 323.165 1232.48 303.386C1234.54 293.494 1235.1 283.821 1233.85 275.224C1232.6 266.696 1229.54 259.096 1224.2 253.296C1223.94 253.158 1223.77 252.962 1223.63 252.797L1223.63 252.796C1223.49 252.641 1223.39 252.522 1223.2 252.432L1223.16 252.412L1223.12 252.37C1219.04 248.123 1214.02 245.479 1208.6 243.809C1203.19 242.14 1197.4 241.451 1191.78 241.088C1155.53 239.06 1110.1 249.677 1065.13 282.002L1065.13 282.003C1060.66 285.131 1055.81 286.515 1050.68 286.597C1040.79 287.192 1029.71 283.912 1018.58 280.62C1015.71 279.769 1012.83 278.918 1009.97 278.132C996.017 274.298 982.455 272.026 971.435 278.897C944.152 296.024 919.772 320.159 895.425 344.26C892.664 346.993 889.904 349.725 887.14 352.447C860.005 379.167 832.514 404.85 800.739 419.719L800.739 419.719C767.528 435.145 738.029 454.776 707.742 474.932C692.107 485.336 676.262 495.881 659.588 506.059M934.93 688.941L659.44 505.419M934.93 688.941C910.987 704.196 886.642 707.85 867.015 707.763C852.701 707.601 839.749 705.381 826.842 702.919C825.28 702.621 823.718 702.319 822.155 702.017C810.804 699.825 799.363 697.616 786.951 696.627M934.93 688.941L787.013 697.288M659.588 506.059L659.44 505.419M659.588 506.059C659.588 506.059 659.588 506.058 659.588 506.058L659.44 505.419M659.588 506.059C647.445 513.502 627.512 514.971 607.518 516.445C606.688 516.506 605.857 516.567 605.027 516.629C594.609 517.403 584.254 518.244 575.039 519.995C565.821 521.746 557.762 524.403 551.929 528.793L551.928 528.794C522.446 550.877 507.888 580.199 500.448 609.167C493.899 634.663 492.853 659.917 492.025 679.899C491.911 682.631 491.802 685.264 491.684 687.785L491.684 687.791C490.794 704.919 494.549 720.274 500.566 734.29L500.569 734.298C508.443 753.051 524.214 767.258 548.017 771.106C571.798 774.95 603.513 768.438 643.176 745.956L643.177 745.956C682.326 723.99 714.291 706.117 745.707 699.415M659.44 505.419C647.33 512.843 627.426 514.31 607.41 515.786C585.749 517.383 563.957 518.989 551.766 528.164C496.267 569.736 493.481 637.002 491.712 679.697C491.599 682.427 491.49 685.056 491.372 687.571C490.469 704.958 494.291 720.535 500.357 734.666C516.327 772.703 563.959 791.583 643.32 746.598C682.475 724.629 714.419 706.769 745.81 700.072M745.707 699.415L745.81 700.072M745.707 699.415C745.708 699.415 745.708 699.415 745.708 699.414L745.81 700.072M745.707 699.415C759.555 696.337 773.017 695.4 786.951 696.627M745.81 700.072C759.645 696.997 773.094 696.062 787.013 697.288M787.013 697.288L786.951 696.627M787.013 697.288L786.953 696.628C786.952 696.628 786.952 696.628 786.951 696.627" stroke="#51D6FB" stroke-opacity="0.1" stroke-width="2" stroke-miterlimit="10"/>
<path d="M862.31 726.909L862.309 726.909C846.449 726.599 832.132 724.069 817.903 721.243C815.896 720.845 813.892 720.441 811.885 720.036C799.659 717.57 787.345 715.087 774.033 713.81C758.695 712.112 743.544 713.223 728.437 716.49L728.437 716.49C693.35 724.19 657.473 743.943 614.113 768.438C569.259 793.856 533.598 801.088 506.936 796.648C480.253 792.204 462.664 776.086 453.854 755L453.851 754.994L453.849 754.988C447.019 739.198 442.832 721.851 443.683 702.519C443.825 699.36 443.951 696.043 444.083 692.589C444.936 670.219 446.009 642.067 453.1 613.653C461.281 580.867 477.49 547.695 510.692 522.855C517.274 517.935 526.379 515.002 536.794 513.106C547.205 511.211 558.905 510.355 570.67 509.574C571.57 509.514 572.471 509.455 573.371 509.396C595.989 507.906 618.522 506.423 632.15 498.054C650.483 486.829 667.99 475.15 685.315 463.592C719.661 440.679 753.291 418.244 791.22 400.771L791.088 400.123L791.22 400.771C826.573 384.451 857.152 355.553 887.32 325.374C890.586 322.107 893.846 318.825 897.108 315.543C923.982 288.495 950.903 261.401 980.991 242.223C992.931 234.607 1007.91 237.458 1023.4 242.122C1026.62 243.091 1029.86 244.138 1033.1 245.185C1045.42 249.168 1057.71 253.142 1068.64 252.746L1068.64 252.746C1074.57 252.471 1079.91 251.315 1084.73 247.752C1135.3 211.402 1186.09 199.607 1226.35 202.174C1232.65 202.663 1239.11 203.479 1245.17 205.384C1251.23 207.291 1256.86 210.281 1261.5 215.092L1261.54 215.134L1261.58 215.154C1261.77 215.243 1261.88 215.364 1262.01 215.519L1262.01 215.52C1262.15 215.685 1262.32 215.881 1262.58 216.018C1268.53 222.653 1271.93 231.286 1273.29 240.954C1274.65 250.692 1273.98 261.608 1271.65 272.743C1266.99 295.007 1255.79 317.861 1241.7 333.402C1227.57 348.844 1211.57 360.1 1195.27 370.847C1192.87 372.433 1190.46 374.007 1188.05 375.583C1174.12 384.681 1160.15 393.806 1147.15 405.227C1139.24 412.137 1132.25 419.285 1125.35 426.864L1125.35 426.866C1095.21 460.387 1076.54 497.888 1059.94 531.223C1056.82 537.483 1053.78 543.597 1050.75 549.509C1047.34 556.117 1043.77 563.528 1039.94 571.477C1019.1 614.716 990.597 673.874 938.908 706.329C911.492 723.469 884.203 727.486 862.31 726.909Z" stroke="#51D6FB" stroke-opacity="0.1" stroke-width="2" stroke-miterlimit="10"/>
<path d="M857.679 746.333L857.68 746.333C881.79 747.185 912.451 742.817 942.525 723.99C1000.38 687.986 1031.88 622.061 1054.76 574.194C1058.96 565.404 1062.87 557.223 1066.6 549.948L1066.81 550.408L1066.6 549.948C1070.14 543.067 1073.68 535.941 1077.3 528.638C1095.56 491.891 1116.04 450.669 1149.05 413.696L1149.24 414.297L1149.05 413.695C1156.63 405.254 1164.73 397.26 1173.31 389.496L1173.31 389.494C1187.68 376.812 1203.15 366.705 1218.59 356.617C1221.29 354.859 1223.98 353.101 1226.66 351.331C1244.75 339.397 1262.53 326.873 1278.2 309.61C1293.87 292.357 1306.24 266.958 1311.34 242.238C1313.89 229.876 1314.6 217.756 1313.04 206.951C1311.49 196.215 1307.68 186.649 1301.05 179.335C1300.77 179.181 1300.58 178.907 1300.42 178.693L1300.42 178.684C1300.27 178.471 1300.17 178.331 1300 178.251L1299.96 178.232L1299.92 178.19C1294.73 172.815 1288.47 169.426 1281.76 167.257C1275.05 165.089 1267.91 164.146 1260.96 163.639C1216.32 160.736 1160.17 173.707 1104.76 213.665C1099.56 217.438 1093.46 219.009 1087.03 219.056C1075.07 219.253 1061.65 214.595 1048.2 209.927C1044.6 208.679 1041.01 207.431 1037.44 206.275C1020.48 200.782 1004.07 197.351 990.997 205.705C990.997 205.705 990.997 205.705 990.997 205.705L990.846 205.067L857.679 746.333ZM857.679 746.333C840.252 745.766 824.548 742.818 808.998 739.629C807.283 739.277 805.571 738.923 803.858 738.568C790.036 735.707 776.197 732.842 761.247 731.487C744.176 729.741 727.72 730.819 710.972 734.482C672.553 742.756 633.15 764.177 585.201 791.402C534.969 819.853 495.283 827.91 465.701 822.927C436.099 817.941 416.694 799.915 406.925 776.394C399.659 758.615 395.039 739.275 395.85 717.743C396.029 713.746 396.178 709.516 396.335 705.087C397.201 680.545 398.283 649.89 405.768 618.939C414.601 582.42 432.363 545.454 469.282 517.862L469.283 517.861M857.679 746.333L469.283 517.861M469.283 517.861C476.6 512.359 486.742 509.111 498.345 507.04M469.283 517.861L498.345 507.04M498.345 507.04C509.944 504.971 522.984 504.081 536.093 503.28C537.137 503.216 538.181 503.153 539.225 503.089C564.384 501.567 589.413 500.051 604.479 490.787L498.345 507.04Z" stroke="#51D6FB" stroke-opacity="0.1" stroke-width="2" stroke-miterlimit="10"/>
<path d="M747.937 748.763C729.134 746.969 710.995 748.22 692.993 752.07C651.201 760.698 608.324 783.999 555.794 813.946C500.621 845.435 457.01 854.264 424.506 848.712C391.981 843.157 370.654 823.221 359.953 797.377L359.953 797.375C351.916 778.03 346.493 756.923 347.595 732.794L347.596 732.793C347.8 728.178 347.966 723.275 348.14 718.127C349.047 691.305 350.178 657.853 358.222 624.05C367.805 583.78 387.213 542.978 427.822 512.532C435.886 506.503 447.072 502.981 459.868 500.767C472.661 498.553 487.045 497.65 501.497 496.843C502.613 496.781 503.729 496.719 504.844 496.657C532.619 495.121 560.24 493.593 576.786 483.409C599.733 469.413 621.54 454.787 643.126 440.309C684.818 412.346 725.687 384.935 772.363 363.673C815.218 344.151 851.935 308.736 888.152 271.63C892.154 267.529 896.15 263.408 900.148 259.286C932.331 226.095 964.609 192.807 1000.97 169.368L1000.97 169.367C1015.16 160.17 1033.09 164.183 1051.63 170.507C1055.55 171.843 1059.5 173.283 1063.44 174.722C1078.13 180.082 1092.77 185.425 1105.77 185.341C1113.05 185.317 1119.59 183.756 1125.56 179.567L1125.57 179.565C1186.57 135.6 1248.11 121.675 1296.7 124.901C1311.91 125.951 1327.9 128.973 1339.41 140.865L1339.42 140.878L1339.44 140.889C1339.66 141.078 1339.78 141.257 1339.93 141.468L1339.93 141.47C1340.09 141.694 1340.27 141.949 1340.56 142.199C1347.81 150.296 1351.98 160.877 1353.67 172.754C1355.38 184.686 1354.59 198.049 1351.8 211.662C1346.22 238.883 1332.68 266.821 1315.44 285.782C1298.2 304.754 1278.65 318.543 1258.78 331.687C1255.87 333.607 1252.96 335.513 1250.05 337.42C1233.05 348.561 1216.02 359.716 1200.23 373.701C1190.5 382.095 1181.72 390.947 1173.46 400.245C1136.85 441.068 1114.45 486.664 1094.61 527.055C1090.73 534.951 1086.95 542.647 1083.18 550.07C1078.97 558.244 1074.55 567.484 1069.79 577.432C1044.6 630.069 1009.93 702.525 946.547 741.71C913.005 762.414 879.407 767.142 853.037 765.799L853.036 765.799C834.044 764.974 817.052 761.556 800.165 757.923C798.726 757.613 797.287 757.302 795.848 756.991C780.406 753.65 764.914 750.299 747.937 748.763ZM747.937 748.763L747.996 749.424M747.937 748.763C747.937 748.763 747.937 748.763 747.936 748.763L747.996 749.424M747.996 749.424C764.964 750.959 780.447 754.308 795.891 757.649C814.212 761.613 832.478 765.564 853.103 766.46L359.739 797.742C381.362 849.961 445.557 877.587 555.938 814.589C608.471 784.64 651.327 761.351 693.094 752.729C711.083 748.882 729.209 747.631 747.996 749.424ZM1339.49 140.281C1339.75 140.504 1339.91 140.724 1340.06 140.945C1340.22 141.165 1340.37 141.385 1340.63 141.608C1370 174.366 1350.16 248.398 1315.63 286.385C1295.85 308.155 1273.03 323.102 1250.2 338.059C1233.2 349.201 1216.18 360.347 1200.41 374.323C1190.68 382.711 1181.9 391.556 1173.66 400.846L1339.49 140.281ZM1339.49 140.281C1327.9 128.306 1311.84 125.289 1296.64 124.239L1339.49 140.281Z" stroke="#51D6FB" stroke-opacity="0.1" stroke-width="2" stroke-miterlimit="10"/>
<path d="M848.35 785.192L848.35 785.192C876.944 786.812 913.969 781.95 950.175 759.551C1019.74 716.564 1057.71 636.7 1085.03 579.215C1090.01 568.746 1094.63 559.02 1099.03 550.394C1103.32 541.969 1107.61 533.222 1112.02 524.244C1133.51 480.442 1157.71 431.119 1197.13 386.683L1197.13 386.681C1206.11 376.741 1215.57 367.028 1226.37 357.566C1226.37 357.566 1226.37 357.565 1226.37 357.565L1226.55 358.187C1243.83 342.88 1262.34 330.747 1280.81 318.643C1305.71 302.327 1330.53 286.064 1352.13 262.154C1389.43 220.932 1411.22 139.908 1379.06 104.211L848.35 785.192ZM848.35 785.192C827.786 784.108 809.405 780.27 791.171 776.163C789.305 775.743 787.44 775.32 785.575 774.897C769.216 771.184 752.807 767.461 734.888 765.53L734.887 765.53C714.728 763.481 695.28 764.7 675.634 768.946C629.783 778.78 583.803 803.769 526.627 836.239C466.062 870.776 418.404 880.378 382.965 874.254C347.507 868.126 324.36 846.272 312.722 818.089L312.72 818.084C303.877 796.977 298.396 773.665 299.46 747.312C299.685 742.092 299.862 736.531 300.047 730.682C300.975 701.456 302.131 665.061 310.738 628.296C321.063 584.195 342.125 539.531 386.46 506.321C395.274 499.76 407.505 495.949 421.496 493.573C435.483 491.198 451.21 490.261 467.009 489.434C468.281 489.367 469.554 489.301 470.826 489.235C501.136 487.666 531.242 486.107 549.245 475.133L549.246 475.132C573.772 460.062 597.1 444.358 620.19 428.815C666.121 397.896 711.111 367.61 762.727 344.202L762.596 343.553L762.727 344.202C809.14 323.119 848.949 284.481 888.209 243.932C892.657 239.338 897.099 234.719 901.542 230.098C936.317 193.931 971.2 157.654 1010.44 132.122C1025.76 122.183 1045.12 126.833 1065.16 134.045C1069.41 135.576 1073.69 137.223 1077.97 138.869C1093.83 144.964 1109.64 151.041 1123.68 151.156C1131.46 151.361 1138.81 149.602 1145.13 144.981C1211.75 96.981 1278.66 81.8751 1331.26 85.6434C1347.78 86.9433 1365.06 90.206 1377.67 103.132C1377.82 103.564 1378.04 103.867 1378.22 104.08C1378.45 104.352 1378.73 104.589 1378.98 104.803L848.35 785.192Z" stroke="#51D6FB" stroke-opacity="0.1" stroke-width="2" stroke-miterlimit="10"/>
<path d="M843.764 804.482L843.827 805.131L843.764 804.482C821.636 803.14 801.883 798.938 782.235 794.519C780.745 794.185 779.256 793.848 777.767 793.512C759.612 789.413 741.399 785.301 721.349 783.269L721.349 783.269C699.458 781.173 678.756 782.577 657.427 786.999L657.426 786.999C608.25 797.403 558.75 824.052 496.993 859.244L496.993 859.245C431.295 896.923 379.712 907.296 341.399 900.577C303.067 893.855 278.095 870.041 265.523 839.535L265.52 839.529C255.811 816.418 249.527 791.34 250.93 762.611L250.93 762.61C251.237 756.283 251.467 749.493 251.711 742.322C252.774 711.035 254.083 672.502 263.059 633.571C274.086 585.745 296.699 537.296 344.723 501.232C354.178 494.142 367.395 490.042 382.555 487.502C397.712 484.963 414.789 483.986 431.954 483.126C433.315 483.058 434.676 482.991 436.036 482.923C468.991 481.291 501.757 479.668 521.231 467.78C548.107 451.335 573.679 434.117 599.016 417.057C648.571 383.69 697.227 350.928 752.98 325.745C803.153 303.118 846.028 261.226 888.306 217.204C893.136 212.175 897.957 207.119 902.781 202.06C940.192 162.827 977.734 123.457 1020.09 95.8075C1036.35 85.2361 1057.14 90.4671 1078.69 98.4835C1083.27 100.187 1087.89 102.018 1092.51 103.847C1109.57 110.611 1126.61 117.363 1141.71 117.676L1141.71 117.676C1150.3 117.686 1157.71 116.145 1164.8 111.107L1164.8 111.106C1237.01 59.0993 1308.93 43.246 1365.86 47.1314C1384.11 48.4777 1402.79 52.2109 1416.46 66.0458C1416.6 66.477 1416.82 66.7792 1417 66.9919C1417.24 67.2636 1417.52 67.5009 1417.77 67.7147C1426.33 77.3802 1431.26 89.97 1433.26 104.085C1435.27 118.255 1434.34 134.084 1431.06 150.181C1424.51 182.37 1408.59 215.349 1388.43 237.745C1368.26 260.15 1345.25 276.427 1321.8 291.972C1318.36 294.253 1314.91 296.519 1311.46 298.786C1291.38 311.962 1271.24 325.183 1252.54 341.796L1252.54 341.797C1241.06 352.114 1230.88 362.465 1221.22 373.264L1221.41 373.866L1221.22 373.264C1178.19 421.557 1152.07 475.264 1128.99 522.717C1124.33 532.28 1119.81 541.588 1115.29 550.548C1110.57 559.836 1105.61 570.326 1100.27 581.629C1070.9 643.728 1029.94 730.353 954.209 776.881L954.357 777.521L954.208 776.881C914.582 801.374 874.572 806.378 843.764 804.482Z" stroke="#51D6FB" stroke-opacity="0.1" stroke-width="2" stroke-miterlimit="10"/>
<path d="M839.174 823.755L839.175 823.755C872.25 826.146 915.59 820.573 957.926 794.607C1039.84 744.281 1084.09 650.241 1115.59 583.315C1121.15 571.499 1126.31 560.528 1131.21 550.792L1131.45 551.322L1131.21 550.791C1136.28 540.76 1141.36 530.324 1146.57 519.599C1171.27 468.803 1199.12 411.502 1244.57 359.854L1244.57 359.854C1254.91 348.193 1266.16 336.774 1278.36 325.815L1278.36 325.814C1298.43 307.939 1320.08 293.732 1341.67 279.564C1345.4 277.114 1349.13 274.665 1352.85 272.199C1378.1 255.464 1402.88 237.916 1424.6 213.684L1424.79 214.287L1424.6 213.684C1446.14 189.676 1463.23 154.145 1470.27 119.44C1473.8 102.086 1474.79 85.0085 1472.61 69.7212C1470.45 54.489 1465.11 40.9124 1455.86 30.513C1455.59 30.2806 1455.31 29.9974 1455.04 29.7281C1454.76 29.4473 1454.5 29.1812 1454.25 28.969L1454.24 28.9564L1454.22 28.9409C1447.03 21.3214 1438.42 16.5002 1429.08 13.4124C1419.75 10.3255 1409.72 8.97676 1399.71 8.2788L1399.65 7.61681L1399.71 8.2788C1338.77 3.85048 1261.1 21.0871 1184.05 76.7089L1184.05 76.7103C1176.57 81.9588 1168.39 83.9165 1159.32 83.6766C1143.21 83.2507 1125.04 75.8033 1106.81 68.3306C1101.83 66.2885 1096.84 64.2444 1091.89 62.3413C1068.8 53.4632 1046.48 47.6456 1028.92 59.1686M839.174 823.755L1028.92 59.1686M839.174 823.755C815.477 822.153 794.336 817.53 773.21 812.771C772.351 812.577 771.493 812.384 770.634 812.19C750.365 807.618 730.013 803.027 707.349 800.971C684.056 798.402 661.282 800.188 638.695 804.798L638.695 804.798C586.183 815.776 533.201 844.314 466.85 882.242C396.148 922.756 340.617 933.85 299.373 926.559C258.112 919.266 231.226 893.589 217.718 860.751C207.573 835.648 200.858 808.575 202.22 777.639L202.22 777.637C202.498 771.047 202.698 763.983 202.91 756.526C203.869 722.72 205.057 680.843 214.664 638.527C226.384 586.903 250.648 534.597 302.395 495.774C312.599 488.154 326.864 483.779 343.221 481.095C359.575 478.412 377.999 477.422 396.512 476.556C397.945 476.489 399.378 476.422 400.811 476.356C436.389 474.711 471.754 473.076 492.712 460.263C521.65 442.534 549.124 423.976 576.351 405.586C629.599 369.62 681.899 334.293 742.349 307.054C796.268 282.767 842.326 237.607 887.691 190.122C893.007 184.559 898.313 178.963 903.62 173.366C943.62 131.182 983.733 88.8787 1028.92 59.1686M839.174 823.755L1028.77 58.531L1028.92 59.1686" stroke="#51D6FB" stroke-opacity="0.1" stroke-width="2" stroke-miterlimit="10"/>
<path d="M1304.82 309.639L1304.82 309.639C1291.55 321.664 1279.58 333.724 1268.57 346.245C1219.43 402.067 1189.6 463.795 1163.26 518.299C1157.86 529.475 1152.6 540.347 1147.36 550.802L1147.6 551.332L1147.36 550.803C1142.2 561.115 1136.78 572.728 1130.93 585.236C1097.41 656.949 1050.14 758.079 961.872 812.07C916.109 840.137 869.778 845.852 834.485 843.184L834.539 843.758L834.485 843.184C809.22 841.323 786.79 836.229 764.464 830.919C762.995 830.569 761.527 830.219 760.059 829.869C739.204 824.894 718.283 819.903 695.086 817.362L695.085 817.362C670.057 814.746 645.978 816.498 621.75 821.503L621.75 821.503C565.523 833.261 508.63 863.671 438.074 904.124C362.013 947.785 302.465 959.759 258.305 951.952C214.127 944.141 185.424 916.551 170.958 881.273C160.048 854.616 152.854 825.335 154.176 792.199C154.478 784.991 154.692 777.245 154.917 769.057C155.912 732.951 157.144 688.233 167.31 643.04C179.776 587.624 205.69 531.468 261.157 489.89C272.097 481.687 287.402 477.01 304.953 474.172C322.5 471.335 342.271 470.339 362.135 469.481C363.708 469.413 365.282 469.346 366.855 469.279C404.991 467.652 442.87 466.037 465.269 452.327L465.143 451.778L465.269 452.327C496.082 433.429 525.384 413.636 554.436 394.011C611.765 355.286 668.123 317.217 733.209 287.974C790.678 262.133 839.724 213.814 888.078 162.925C893.77 156.934 899.453 150.907 905.138 144.878C947.756 99.6824 990.543 54.3082 1038.83 22.3776C1057.34 10.2201 1081.08 16.6208 1105.69 26.3058C1110.97 28.3824 1116.29 30.6103 1121.61 32.8366C1141.05 40.9812 1160.45 49.1053 1177.62 49.73L1177.62 49.73C1187.13 49.9814 1196.18 48.0463 1203.99 42.3658C1286.65 -17.2768 1369.68 -35.6886 1434.62 -30.7177L1434.62 -30.7177C1455.95 -29.2854 1477.38 -25.0231 1492.88 -8.64595C1493.18 -8.30278 1493.46 -8.01659 1493.73 -7.74119C1494.01 -7.46142 1494.27 -7.19261 1494.55 -6.87272L1494.55 -6.86845C1504.42 4.31676 1510.14 18.8996 1512.49 35.2538C1514.84 51.6515 1513.83 69.9495 1510.11 88.5324C1502.69 125.695 1484.52 163.721 1461.4 189.443C1438.11 215.389 1411.54 234.152 1384.5 252.074C1380.7 254.589 1376.9 257.088 1373.09 259.587C1349.79 274.894 1326.43 290.238 1304.82 309.639Z" stroke="#51D6FB" stroke-opacity="0.1" stroke-width="2" stroke-miterlimit="10"/>
<path d="M1163.34 551.507L1163.34 551.508C1157.93 562.353 1152.23 574.567 1146.09 587.728C1110.43 664.087 1059.89 772.32 965.62 829.991C917.153 859.524 867.88 865.601 829.938 862.644C803.108 860.523 779.292 855.01 755.556 849.414L753.771 848.994C730.633 843.537 707.501 838.082 681.671 835.704C655.292 832.833 629.911 834.552 604.043 839.951L604.143 840.608L604.042 839.951C544.534 852.499 484.118 884.573 408.975 927.754C327.726 974.347 264.236 987.038 217.198 978.635C170.141 970.228 139.623 940.727 124.223 903.121L124.222 903.119C112.499 874.689 104.876 843.429 106.539 807.894L106.539 807.892C106.917 799.626 107.176 790.703 107.45 781.248C108.56 742.974 109.923 695.98 120.483 648.5C133.646 589.322 161.113 529.372 220.275 484.933L220.275 484.933C231.855 476.199 248.125 471.246 266.811 468.263C285.492 465.281 306.568 464.271 327.751 463.406C329.404 463.339 331.058 463.272 332.711 463.206C373.409 461.566 413.869 459.937 437.744 445.309L437.617 444.76L437.744 445.309C470.618 425.128 501.865 403.975 532.849 383C593.948 341.638 654.025 300.967 723.544 269.813C784.777 242.426 836.893 190.845 888.27 136.474C894.338 130.051 900.397 123.59 906.459 117.125C951.721 68.852 997.176 20.3735 1048.59 -13.682L1048.44 -14.3195L1048.59 -13.6821C1068.21 -26.6859 1093.27 -19.6507 1119.32 -9.08038C1124.82 -6.85012 1130.36 -4.46229 1135.9 -2.07403C1156.59 6.84382 1177.3 15.7675 1195.76 16.5137C1205.81 17.2143 1215.24 15.0693 1223.83 8.97344L1223.83 8.97267C1312.08 -54.6861 1400.13 -73.8469 1469.41 -68.7586C1492.09 -67.0724 1514.88 -62.554 1531.48 -45.0438L1531.5 -45.0288L1531.51 -45.0166C1532.01 -44.5905 1532.56 -43.951 1533.14 -43.278L1533.14 -43.2751C1543.61 -31.3081 1549.68 -15.7164 1552.17 1.76667C1554.67 19.2927 1553.59 38.8365 1549.63 58.6733C1541.73 98.3437 1522.38 138.914 1497.7 166.349L1497.89 166.952L1497.69 166.349C1472.86 194.117 1444.61 214.096 1415.82 233.177C1411.73 235.892 1407.62 238.588 1403.51 241.286C1378.75 257.55 1353.89 273.874 1330.78 294.6C1316.74 307.047 1304.09 319.966 1292.4 333.345C1240.44 392.331 1208.84 457.773 1180.88 515.664C1174.92 528 1169.13 539.992 1163.34 551.507Z" stroke="#51D6FB" stroke-opacity="0.1" stroke-width="2" stroke-miterlimit="10"/>
<path d="M1179.44 551.396L1179.44 551.397C1173.72 562.881 1167.69 575.837 1161.18 589.812C1123.42 670.892 1069.68 786.27 969.513 847.345C917.618 878.981 865.354 885.2 825.192 881.966C796.817 879.695 771.627 873.815 746.553 867.774C745.414 867.499 744.275 867.225 743.137 866.95C719.207 861.176 695.254 855.396 668.627 852.617C575.938 842.99 494.258 884.099 379.798 949.954C293.38 999.592 225.944 1013 175.971 1004C125.98 994.996 93.5348 963.578 77.0065 923.739L76.7931 924.106L77.0064 923.739C64.4706 893.534 56.3688 860.066 57.9431 822.111C58.3544 813.191 58.6299 803.535 58.9223 793.285C60.0771 752.8 61.4964 703.041 72.596 652.745C86.4991 589.745 115.604 525.887 178.487 478.692L178.488 478.692C190.72 469.481 207.988 464.279 227.853 461.162C247.714 458.046 270.147 457.017 292.702 456.133C294.37 456.068 296.04 456.003 297.709 455.938C341.138 454.258 384.367 452.586 409.759 437.014L409.632 436.465L409.759 437.014C444.511 415.663 477.588 393.272 510.399 371.061C575.579 326.939 639.713 283.524 713.869 250.366C778.846 221.321 834.132 166.421 888.587 108.563C895.061 101.685 901.523 94.7655 907.987 87.8425C955.912 36.5221 1004.01 -14.9826 1058.37 -51.0593C1083.48 -67.7458 1117.24 -52.9488 1151.01 -38.1514L1151.51 -37.9324C1168.46 -30.5045 1185.39 -23.1221 1201.17 -19.8148C1216.96 -16.5073 1231.62 -17.2695 1244.02 -26.1596C1337.54 -93.4166 1430.94 -113.753 1504.23 -108.121L1504.17 -108.783L1504.23 -108.121C1528.21 -106.4 1552.4 -101.407 1570.11 -82.7689L1570.19 -83.3137L1570.11 -82.7681C1581.97 -70.3646 1588.92 -53.874 1591.91 -35.2414C1594.91 -16.5659 1593.94 4.39772 1589.83 25.7356C1581.6 68.4081 1560.81 112.28 1534.41 141.752C1508 171.235 1477.97 192.485 1447.4 212.782C1443.08 215.647 1438.76 218.493 1434.43 221.341C1408.09 238.662 1381.68 256.038 1357.14 278.074C1276.22 350.651 1234.12 438.186 1197.86 513.58C1191.61 526.593 1185.52 539.245 1179.44 551.396Z" stroke="#51D6FB" stroke-opacity="0.1" stroke-width="2" stroke-miterlimit="10"/>
</g>
<defs>
<clipPath id="clip0_310_3">
<rect width="1512" height="1033" fill="white" transform="translate(0 -1)"/>
</clipPath>
</defs>
</svg>
