<svg width="23" height="20" viewBox="0 0 23 20" fill="none" xmlns="http://www.w3.org/2000/svg">
<path d="M3.83333 0C2.81667 0 1.84165 0.421427 1.12276 1.17157C0.403868 1.92172 0 2.93913 0 4V4.402L11.5 10.864L23 4.404V4C23 2.93913 22.5961 1.92172 21.8772 1.17157C21.1584 0.421427 20.1833 0 19.1667 0H3.83333ZM23 6.674L11.9543 12.88C11.8146 12.9584 11.6586 12.9995 11.5 12.9995C11.3414 12.9995 11.1854 12.9584 11.0458 12.88L0 6.674V16C0 17.0609 0.403868 18.0783 1.12276 18.8284C1.84165 19.5786 2.81667 20 3.83333 20H19.1667C20.1833 20 21.1584 19.5786 21.8772 18.8284C22.5961 18.0783 23 17.0609 23 16V6.674Z" fill="#96E8FF" fill-opacity="0.75"/>
</svg>
