<svg width="46" height="58" viewBox="0 0 46 58" fill="none" xmlns="http://www.w3.org/2000/svg">
<mask id="path-1-inside-1_1_1142" fill="white">
<path d="M23 0C16.9022 0.00712669 11.0563 2.41005 6.74451 6.68165C2.43273 10.9533 0.00721817 16.7448 2.44696e-05 22.7857C-0.00727884 27.7224 1.62044 32.5251 4.63347 36.4571C4.63347 36.4571 5.26075 37.2754 5.3632 37.3934L23 58L40.6452 37.3831C40.7372 37.2733 41.3665 36.4571 41.3665 36.4571L41.3686 36.4509C44.3802 32.5206 46.0071 27.7201 46 22.7857C45.9928 16.7448 43.5673 10.9533 39.2555 6.68165C34.9437 2.41005 29.0978 0.00712669 23 0ZM23 31.0714C21.3458 31.0714 19.7288 30.5855 18.3534 29.675C16.978 28.7646 15.906 27.4705 15.273 25.9565C14.64 24.4425 14.4744 22.7765 14.7971 21.1693C15.1198 19.562 15.9163 18.0856 17.086 16.9268C18.2557 15.7681 19.746 14.9789 21.3683 14.6592C22.9907 14.3395 24.6724 14.5036 26.2006 15.1307C27.7289 15.7578 29.0351 16.8198 29.9541 18.1824C30.8731 19.545 31.3636 21.147 31.3636 22.7857C31.3609 24.9824 30.4788 27.0883 28.9109 28.6416C27.343 30.1948 25.2173 31.0687 23 31.0714Z"/>
</mask>
<path d="M2.44696e-05 22.7857L1.00002 22.7872L1.00002 22.7869L2.44696e-05 22.7857ZM4.63347 36.4571L3.83972 37.0654L3.88905 37.1298L3.94811 37.1853L4.63347 36.4571ZM5.3632 37.3934L6.12295 36.7432L6.11849 36.738L5.3632 37.3934ZM23 58L22.2403 58.6502L23 59.5379L23.7597 58.6502L23 58ZM40.6452 37.3831L41.4049 38.0333L41.4116 38.0254L40.6452 37.3831ZM41.3665 36.4571L42.1584 37.0678L42.2609 36.9349L42.3144 36.7759L41.3665 36.4571ZM41.3686 36.4509L40.5748 35.8427L40.4737 35.9747L40.4208 36.1322L41.3686 36.4509ZM46 22.7857L45 22.7869V22.7872L46 22.7857ZM31.3636 22.7857L32.3636 22.787V22.7857H31.3636ZM22.9988 -0.999999C16.6393 -0.992567 10.5404 1.51344 6.04072 5.97124L7.4483 7.39206C11.5721 3.30665 17.1652 1.00682 23.0012 0.999999L22.9988 -0.999999ZM6.04072 5.97124C1.54068 10.4294 -0.992462 16.4757 -0.999975 22.7845L1.00002 22.7869C1.0069 17.0138 3.32479 11.4772 7.4483 7.39206L6.04072 5.97124ZM-0.999974 22.7842C-1.00761 27.9422 0.693119 32.9591 3.83972 37.0654L5.42723 35.8489C2.54775 32.0912 0.993047 27.5026 1.00002 22.7872L-0.999974 22.7842ZM4.63347 36.4571C3.83986 37.0656 3.83986 37.0656 3.83987 37.0656C3.83987 37.0656 3.83988 37.0656 3.8399 37.0656C3.83992 37.0656 3.83995 37.0657 3.83999 37.0657C3.84008 37.0658 3.8402 37.066 3.84036 37.0662C3.84067 37.0666 3.84114 37.0672 3.84175 37.068C3.84297 37.0696 3.84477 37.072 3.84711 37.075C3.8518 37.0811 3.85865 37.0901 3.8674 37.1015C3.8849 37.1243 3.90998 37.1569 3.94038 37.1964C4.00113 37.2754 4.08334 37.3822 4.1689 37.4928C4.32619 37.6962 4.5328 37.9623 4.60791 38.0488L6.11849 36.738C6.12021 36.74 6.11047 36.7285 6.08308 36.6943C6.059 36.6643 6.02833 36.6254 5.99269 36.58C5.92159 36.4894 5.83521 36.3782 5.75093 36.2692C5.66687 36.1605 5.58586 36.0553 5.52579 35.9772C5.49579 35.9382 5.47106 35.906 5.45385 35.8836C5.44525 35.8724 5.43853 35.8636 5.43398 35.8577C5.4317 35.8547 5.42996 35.8525 5.4288 35.851C5.42823 35.8502 5.42779 35.8496 5.4275 35.8493C5.42736 35.8491 5.42725 35.8489 5.42718 35.8488C5.42715 35.8488 5.42713 35.8488 5.42711 35.8488C5.4271 35.8487 5.4271 35.8487 5.42709 35.8487C5.42709 35.8487 5.42709 35.8487 4.63347 36.4571ZM4.60347 38.0437L22.2403 58.6502L23.7597 57.3498L6.12293 36.7432L4.60347 38.0437ZM23.7597 58.6502L41.4049 38.0333L39.8854 36.7328L22.2403 57.3498L23.7597 58.6502ZM41.4116 38.0254C41.4734 37.9516 41.6706 37.6981 41.8306 37.4917C41.9155 37.3822 41.9974 37.2763 42.0581 37.1978C42.0884 37.1585 42.1135 37.1261 42.131 37.1034C42.1397 37.0921 42.1465 37.0832 42.1512 37.0771C42.1535 37.0741 42.1553 37.0718 42.1566 37.0702C42.1572 37.0694 42.1576 37.0688 42.1579 37.0684C42.1581 37.0682 42.1582 37.0681 42.1583 37.068C42.1583 37.0679 42.1584 37.0679 42.1584 37.0679C42.1584 37.0678 42.1584 37.0678 42.1584 37.0678C42.1584 37.0678 42.1584 37.0678 41.3665 36.4571C40.5746 35.8465 40.5746 35.8465 40.5746 35.8465C40.5746 35.8465 40.5746 35.8465 40.5746 35.8465C40.5746 35.8465 40.5746 35.8466 40.5745 35.8466C40.5745 35.8467 40.5744 35.8468 40.5742 35.847C40.5739 35.8474 40.5735 35.848 40.5729 35.8488C40.5717 35.8503 40.57 35.8525 40.5677 35.8555C40.5631 35.8615 40.5563 35.8702 40.5477 35.8814C40.5304 35.9039 40.5055 35.936 40.4754 35.975C40.4152 36.0529 40.334 36.1579 40.2501 36.2662C40.166 36.3746 40.0797 36.4856 40.0091 36.5759C39.9737 36.6211 39.943 36.6601 39.9189 36.6906C39.9068 36.7059 39.8969 36.7182 39.8894 36.7276C39.881 36.738 39.8781 36.7416 39.8787 36.7408L41.4116 38.0254ZM42.3144 36.7759L42.3165 36.7696L40.4208 36.1322L40.4187 36.1384L42.3144 36.7759ZM42.1624 37.0591C45.3075 32.9546 47.0074 27.9399 47 22.7843L45 22.7872C45.0068 27.5004 43.4528 32.0867 40.5748 35.8427L42.1624 37.0591ZM47 22.7845C46.9925 16.4757 44.4593 10.4294 39.9593 5.97124L38.5517 7.39206C42.6752 11.4772 44.9931 17.0138 45 22.7869L47 22.7845ZM39.9593 5.97124C35.4596 1.51344 29.3607 -0.992567 23.0012 -0.999999L22.9988 0.999999C28.8348 1.00682 34.4279 3.30665 38.5517 7.39206L39.9593 5.97124ZM23 30.0714C21.5415 30.0714 20.1166 29.6429 18.9054 28.8412L17.8014 30.5089C19.341 31.528 21.1501 32.0714 23 32.0714V30.0714ZM18.9054 28.8412C17.6943 28.0395 16.7518 26.901 16.1956 25.5708L14.3504 26.3423C15.0603 28.0401 16.2617 29.4897 17.8014 30.5089L18.9054 28.8412ZM16.1956 25.5708C15.6395 24.2406 15.4941 22.7775 15.7775 21.3661L13.8166 20.9724C13.4546 22.7755 13.6405 24.6444 14.3504 26.3423L16.1956 25.5708ZM15.7775 21.3661C16.0609 19.9546 16.7607 18.6568 17.7898 17.6372L16.3822 16.2164C15.072 17.5144 14.1787 19.1693 13.8166 20.9724L15.7775 21.3661ZM17.7898 17.6372C18.819 16.6176 20.1315 15.9222 21.5617 15.6403L21.175 13.6781C19.3604 14.0357 17.6924 14.9185 16.3822 16.2164L17.7898 17.6372ZM21.5617 15.6403C22.9919 15.3585 24.4743 15.5032 25.821 16.0558L26.5803 14.2056C24.8704 13.5039 22.9895 13.3205 21.175 13.6781L21.5617 15.6403ZM25.821 16.0558C27.1676 16.6084 28.317 17.5436 29.125 18.7416L30.7832 17.6233C29.7532 16.0961 28.2902 14.9072 26.5803 14.2056L25.821 16.0558ZM29.125 18.7416C29.933 19.9395 30.3636 21.3468 30.3636 22.7857H32.3636C32.3636 20.9471 31.8132 19.1505 30.7832 17.6233L29.125 18.7416ZM30.3636 22.7845C30.3612 24.7133 29.5868 26.5644 28.2071 27.9312L29.6147 29.352C31.3708 27.6122 32.3605 25.2515 32.3636 22.787L30.3636 22.7845ZM28.2071 27.9312C26.8272 29.2983 24.9543 30.069 22.9988 30.0714L23.0012 32.0714C25.4803 32.0684 27.8589 31.0914 29.6147 29.352L28.2071 27.9312Z" fill="white" mask="url(#path-1-inside-1_1_1142)"/>
</svg>
