<svg width="39" height="39" viewBox="0 0 39 39" fill="none" xmlns="http://www.w3.org/2000/svg">
<path d="M19.5 0L19.5038 19.4808L26.9624 1.48434L19.5109 19.4838L33.2885 5.71142L19.5162 19.4891L37.5156 12.0376L19.5192 19.4962L39 19.5L19.5192 19.5038L37.5156 26.9624L19.5162 19.5109L33.2885 33.2885L19.5109 19.5162L26.9624 37.5156L19.5038 19.5192L19.5 39L19.4962 19.5192L12.0376 37.5156L19.4891 19.5162L5.71142 33.2885L19.4838 19.5109L1.48434 26.9624L19.4808 19.5038L0 19.5L19.4808 19.4962L1.48434 12.0376L19.4838 19.4891L5.71142 5.71142L19.4891 19.4838L12.0376 1.48434L19.4962 19.4808L19.5 0Z" fill="#F0C3D2" stroke="#416262"/>
</svg>
