<svg width="444" height="135" viewBox="0 0 444 135" fill="none" xmlns="http://www.w3.org/2000/svg">
<g clip-path="url(#clip0_303_3)">
<path d="M60.2793 59.0312V56.0312H57.2793V59.0312H60.2793ZM115.982 59.0312H118.982V56.0312H115.982V59.0312ZM115.982 121.092V124.092H118.982V121.092H115.982ZM92.3691 121.092H89.3691V124.092H92.3691V121.092ZM92.3691 104.214H95.3691V101.214H92.3691V104.214ZM91.0825 104.214V101.214H89.0293L88.286 103.128L91.0825 104.214ZM80.1841 117.005L78.5766 114.472L78.5655 114.479L80.1841 117.005ZM21.1509 108.15L19.1785 110.41L21.1509 108.15ZM8.96582 90.8184L6.19138 91.9596L6.19628 91.9715L6.20129 91.9834L8.96582 90.8184ZM8.96582 43.2891L6.20129 42.124L6.19774 42.1324L6.19425 42.1408L8.96582 43.2891ZM21.0752 25.8818L19.0903 23.6323L19.0848 23.6372L19.0794 23.6421L21.0752 25.8818ZM39.0122 15.4375L40.0172 18.2641L40.0265 18.2608L40.0358 18.2575L39.0122 15.4375ZM96.9858 22.0977L95.2904 24.5727L95.2989 24.5784L96.9858 22.0977ZM115.301 48.2085V51.2085H118.964L118.242 47.6174L115.301 48.2085ZM89.4932 48.2085L86.843 49.6144L87.6886 51.2085H89.4932V48.2085ZM44.1587 38.9751L42.9562 36.2266L42.9456 36.2313L44.1587 38.9751ZM32.5034 49.3438L29.9549 47.761L29.9503 47.7684L32.5034 49.3438ZM37.1201 90.1372L35.1568 92.4056L35.1662 92.4136L37.1201 90.1372ZM91.2339 81.1309L94.1095 81.9858L95.2556 78.1309H91.2339V81.1309ZM60.2793 81.1309H57.2793V84.1309H60.2793V81.1309ZM60.2793 62.0312H115.982V56.0312H60.2793V62.0312ZM112.982 59.0312V121.092H118.982V59.0312H112.982ZM115.982 118.092H92.3691V124.092H115.982V118.092ZM95.3691 121.092V104.214H89.3691V121.092H95.3691ZM92.3691 101.214H91.0825V107.214H92.3691V101.214ZM88.286 103.128C86.526 107.66 83.3485 111.444 78.5766 114.472L81.7916 119.538C87.5145 115.906 91.6026 111.162 93.879 105.3L88.286 103.128ZM78.5655 114.479C73.9538 117.434 68.1402 119 60.9604 119V125C69.0183 125 76.0205 123.236 81.8026 119.531L78.5655 114.479ZM60.9604 119C53.3943 119 46.4172 117.861 40.0051 115.612L38.0193 121.274C45.1293 123.768 52.7844 125 60.9604 125V119ZM40.0051 115.612C33.5859 113.36 27.9685 110.117 23.1233 105.889L19.1785 110.41C24.6262 115.164 30.9163 118.782 38.0193 121.274L40.0051 115.612ZM23.1233 105.889C18.3608 101.734 14.5518 96.3483 11.7304 89.6533L6.20129 91.9834C9.33359 99.416 13.648 105.585 19.1785 110.41L23.1233 105.889ZM11.7403 89.6771C8.98313 82.9744 7.57617 75.398 7.57617 66.9023H1.57617C1.57617 76.0662 3.09564 84.4338 6.19138 91.9596L11.7403 89.6771ZM7.57617 66.9023C7.57617 58.5651 8.98078 51.0912 11.7374 44.4373L6.19425 42.1408C3.09799 49.6146 1.57617 57.8829 1.57617 66.9023H7.57617ZM11.7304 44.4541C14.5555 37.7504 18.3468 32.3313 23.071 28.1216L19.0794 23.6421C13.6115 28.5144 9.32991 34.7002 6.20129 42.124L11.7304 44.4541ZM23.0601 28.1313C27.9046 23.8567 33.5467 20.5648 40.0172 18.2641L38.0072 12.6109C30.8547 15.154 24.5388 18.8249 19.0903 23.6323L23.0601 28.1313ZM40.0358 18.2575C46.4941 15.9134 53.4611 14.729 60.9604 14.729V8.729C52.8185 8.729 45.1534 10.017 37.9887 12.6175L40.0358 18.2575ZM60.9604 14.729C74.3678 14.729 85.7656 18.0481 95.2905 24.5727L98.6812 19.6226C88.0238 12.3223 75.4047 8.729 60.9604 8.729V14.729ZM95.2989 24.5784C104.836 31.0634 110.417 39.1296 112.36 48.7996L118.242 47.6174C115.947 36.1969 109.318 26.8559 98.6728 19.6169L95.2989 24.5784ZM115.301 45.2085H89.4932V51.2085H115.301V45.2085ZM92.1433 46.8026C86.9784 37.0664 76.0255 32.7964 60.9604 32.7964V38.7964C75.1597 38.7964 83.2286 42.8011 86.843 49.6144L92.1433 46.8026ZM60.9604 32.7964C54.2713 32.7964 48.2478 33.9116 42.9562 36.2266L45.3611 41.7236C49.7571 39.8004 54.9347 38.7964 60.9604 38.7964V32.7964ZM42.9456 36.2313C37.5578 38.6133 33.2245 42.4965 29.9549 47.761L35.0519 50.9265C37.7361 46.6045 41.173 43.5752 45.3717 41.7189L42.9456 36.2313ZM29.9503 47.7684C26.6669 53.0898 25.1138 59.521 25.1138 66.9023H31.1138C31.1138 60.3579 32.4871 55.0833 35.0565 50.9191L29.9503 47.7684ZM25.1138 66.9023C25.1138 77.7905 28.3111 86.4803 35.1568 92.4055L39.0835 87.8689C33.9207 83.4002 31.1138 76.6001 31.1138 66.9023H25.1138ZM35.1662 92.4136C41.8833 98.1792 50.5781 100.933 60.9604 100.933V94.9326C51.6651 94.9326 44.4663 92.4891 39.0741 87.8608L35.1662 92.4136ZM60.9604 100.933C69.6774 100.933 76.9744 99.4907 82.6238 96.3553C88.3653 93.1687 92.2239 88.3283 94.1095 81.9858L88.3583 80.2759C86.9138 85.1346 84.0618 88.695 79.7122 91.1091C75.2704 93.5743 69.0957 94.9326 60.9604 94.9326V100.933ZM91.2339 78.1309H60.2793V84.1309H91.2339V78.1309ZM63.2793 81.1309V59.0312H57.2793V81.1309H63.2793ZM211.813 15.4375L211.085 18.3479L211.099 18.3512L211.112 18.3544L211.813 15.4375ZM225.133 20.584L223.595 23.1596L223.608 23.1675L223.622 23.1753L225.133 20.584ZM245.265 47.9814L242.369 48.7642L242.375 48.7876L242.382 48.8108L245.265 47.9814ZM247.384 58.1987L244.403 58.5353L247.384 58.1987ZM247.309 77.4224L244.333 77.0384L244.33 77.0621L244.328 77.0858L247.309 77.4224ZM241.103 97.9326L238.445 96.5406L238.436 96.5573L238.428 96.574L241.103 97.9326ZM234.442 107.242L232.249 105.195L232.24 105.205L232.231 105.215L234.442 107.242ZM224.831 114.961L223.319 112.37L223.311 112.375L223.303 112.379L224.831 114.961ZM211.586 120.108L212.294 123.023L212.304 123.021L212.314 123.018L211.586 120.108ZM147.709 122H144.709V125H147.709V122ZM147.709 13.4697V10.4697H144.709V13.4697H147.709ZM206.667 98.2354L207.834 100.999L207.851 100.992L207.867 100.985L206.667 98.2354ZM220.214 84.3096L222.974 85.4859L220.214 84.3096ZM222.787 75.7573L219.829 75.2551L219.826 75.2781L219.822 75.3012L222.787 75.7573ZM222.787 59.6367L219.821 60.0845L219.825 60.1118L219.829 60.139L222.787 59.6367ZM220.214 51.0088L222.974 49.8325L220.214 51.0088ZM215.143 42.9863L212.901 44.9794L212.913 44.9932L212.925 45.0068L215.143 42.9863ZM206.742 37.3101L205.575 40.0735L206.742 37.3101ZM171.322 35.0396V32.0396H168.322V35.0396H171.322ZM171.322 100.506H168.322V103.506H171.322V100.506ZM194.406 16.4697C200.56 16.4697 206.113 17.1049 211.085 18.3479L212.541 12.5271C207.018 11.1464 200.967 10.4697 194.406 10.4697V16.4697ZM211.112 18.3544C216.142 19.5635 220.283 21.1814 223.595 23.1596L226.672 18.0084C222.718 15.6474 217.979 13.8343 212.514 12.5206L211.112 18.3544ZM223.622 23.1753C227.001 25.1463 229.967 27.531 232.534 30.3309L236.957 26.2765C233.973 23.0217 230.532 20.2599 226.645 17.9926L223.622 23.1753ZM232.534 30.3309C235.152 33.1872 237.181 36.0691 238.655 38.9714L244.004 36.2542C242.249 32.7991 239.888 29.4749 236.957 26.2765L232.534 30.3309ZM238.655 38.9714C240.169 41.9515 241.409 45.2128 242.369 48.7642L248.161 47.1987C247.103 43.2826 245.72 39.6315 244.004 36.2542L238.655 38.9714ZM242.382 48.8108C243.405 52.3662 244.072 55.605 244.403 58.5353L250.365 57.8622C249.99 54.5359 249.245 50.9632 248.148 47.1521L242.382 48.8108ZM244.403 58.5353C244.743 61.5473 244.914 64.6387 244.914 67.8105H250.914C250.914 64.4231 250.732 61.1067 250.365 57.8622L244.403 58.5353ZM244.914 67.8105C244.914 70.9669 244.72 74.0424 244.333 77.0384L250.284 77.8063C250.705 74.5458 250.914 71.2135 250.914 67.8105H244.914ZM244.328 77.0858C243.997 80.0161 243.329 83.2549 242.306 86.8103L248.073 88.469C249.169 84.6579 249.914 81.0852 250.29 77.7589L244.328 77.0858ZM242.306 86.8103C241.299 90.312 240.01 93.553 238.445 96.5406L243.76 99.3246C245.525 95.9548 246.961 92.3339 248.073 88.469L242.306 86.8103ZM238.428 96.574C236.959 99.4652 234.913 102.341 232.249 105.195L236.636 109.289C239.623 106.088 242.017 102.757 243.777 99.2912L238.428 96.574ZM232.231 105.215C229.664 108.014 226.698 110.399 223.319 112.37L226.342 117.553C230.229 115.285 233.67 112.524 236.654 109.269L232.231 105.215ZM223.303 112.379C220.032 114.315 215.904 115.936 210.858 117.197L212.314 123.018C217.763 121.656 222.465 119.847 226.358 117.543L223.303 112.379ZM210.878 117.193C205.948 118.389 200.463 119 194.406 119V125C200.861 125 206.83 124.349 212.294 123.023L210.878 117.193ZM194.406 119H147.709V125H194.406V119ZM150.709 122V13.4697H144.709V122H150.709ZM147.709 16.4697H194.406V10.4697H147.709V16.4697ZM194.406 103.506C199.327 103.506 203.822 102.694 207.834 100.999L205.499 95.4719C202.346 96.8039 198.667 97.5059 194.406 97.5059V103.506ZM207.867 100.985C211.747 99.2906 214.962 97.1198 217.383 94.4038L212.904 90.4116C211.187 92.3375 208.751 94.0518 205.466 95.486L207.867 100.985ZM217.383 94.4038C219.684 91.8218 221.544 88.8405 222.974 85.4859L217.454 83.1333C216.26 85.9342 214.74 88.3517 212.904 90.4116L217.383 94.4038ZM222.974 85.4859C224.36 82.2344 225.302 79.1393 225.752 76.2135L219.822 75.3012C219.465 77.6228 218.692 80.2292 217.454 83.1333L222.974 85.4859ZM225.745 76.2596C226.226 73.4251 226.468 70.6081 226.468 67.8105H220.468C220.468 70.2604 220.256 72.7413 219.829 75.2551L225.745 76.2596ZM226.468 67.8105C226.468 64.8711 226.228 61.9783 225.745 59.1345L219.829 60.139C220.255 62.6434 220.468 65.1999 220.468 67.8105H226.468ZM225.754 59.189C225.304 56.2133 224.362 53.0908 222.974 49.8325L217.454 52.1851C218.689 55.0824 219.463 57.7118 219.821 60.0845L225.754 59.189ZM222.974 49.8325C221.541 46.4725 219.676 43.5066 217.361 40.9659L212.925 45.0068C214.748 47.0071 216.263 49.3895 217.454 52.1851L222.974 49.8325ZM217.385 40.9932C215 38.3094 211.792 36.187 207.91 34.5466L205.575 40.0735C208.857 41.4605 211.25 43.1222 212.901 44.9794L217.385 40.9932ZM207.91 34.5466C203.894 32.8497 199.373 32.0396 194.406 32.0396V38.0396C198.723 38.0396 202.426 38.7431 205.575 40.0735L207.91 34.5466ZM194.406 32.0396H171.322V38.0396H194.406V32.0396ZM168.322 35.0396V100.506H174.322V35.0396H168.322ZM171.322 103.506H194.406V97.5059H171.322V103.506ZM327.775 56.231L328.364 53.2892L328.307 53.2779L328.251 53.2688L327.775 56.231ZM330.122 56.6094L330.615 53.6502L330.58 53.6445L330.546 53.6395L330.122 56.6094ZM340.49 58.3501L339.987 61.3076L340.49 58.3501ZM350.178 60.3936L349.493 63.3143L349.501 63.3161L350.178 60.3936ZM359.714 63.2695L358.525 66.0237L358.562 66.0398L358.6 66.055L359.714 63.2695ZM367.509 67.0537L366.06 69.6804L366.069 69.6857L366.079 69.6908L367.509 67.0537ZM374.169 72.3516L371.785 74.1716L371.811 74.2067L371.839 74.241L374.169 72.3516ZM378.105 79.3145L375.32 80.4286L375.323 80.4375L375.327 80.4463L378.105 79.3145ZM377.575 102.171L374.763 101.125L374.759 101.136L374.756 101.146L377.575 102.171ZM371.445 111.858L373.524 114.021L373.525 114.02L371.445 111.858ZM292.507 113.902L290.875 116.419L290.886 116.426L290.896 116.433L292.507 113.902ZM285.771 108.831L283.682 110.984L283.714 111.015L283.747 111.045L285.771 108.831ZM281.306 102.928L278.646 104.315L278.664 104.35L278.683 104.385L281.306 102.928ZM278.581 97.0244L275.744 97.9997L275.757 98.0389L275.772 98.0778L278.581 97.0244ZM277.219 91.1968L274.244 91.5848L274.249 91.6214L274.254 91.6579L277.219 91.1968ZM276.689 86.126L273.692 86.2622L273.692 86.2687L276.689 86.126ZM276.613 81.8877V78.8877H273.613V81.8877H276.613ZM300.832 81.8877H303.832V78.8877H300.832V81.8877ZM302.497 90.1372L299.791 91.4316L302.497 90.1372ZM306.735 95.6621L304.87 98.0114L304.908 98.0415L304.946 98.0703L306.735 95.6621ZM348.588 97.7812L349.944 100.458L349.957 100.451L349.97 100.444L348.588 97.7812ZM354.265 85.8232L351.366 86.5962L351.373 86.6219L351.38 86.6474L354.265 85.8232ZM351.162 82.1904L349.241 84.4951L349.344 84.5808L349.454 84.657L351.162 82.1904ZM348.21 80.8281L347.261 83.6742L347.309 83.6902L347.358 83.7045L348.21 80.8281ZM333.3 77.6494L332.793 80.6063L332.84 80.6143L332.888 80.6209L333.3 77.6494ZM325.959 76.5142L325.519 79.4818L325.528 79.483L325.959 76.5142ZM308.552 73.3354L307.846 76.2512L307.86 76.2547L307.875 76.2581L308.552 73.3354ZM295.458 69.1729L294.29 71.9358L294.305 71.9421L294.32 71.9484L295.458 69.1729ZM286.074 63.4209L283.976 65.5659L284 65.5895L284.025 65.6125L286.074 63.4209ZM280.776 55.6255L277.99 56.7397L278.002 56.7679L278.014 56.7959L280.776 55.6255ZM280.322 35.8721L277.462 34.9664L277.457 34.9815L277.452 34.9967L280.322 35.8721ZM285.241 27.0171L287.576 28.9011L287.584 28.8912L287.592 28.8813L285.241 27.0171ZM293.869 19.373L292.282 16.827L292.274 16.8322L292.266 16.8375L293.869 19.373ZM346.999 14.832L346.172 17.7157L346.178 17.7175L346.999 14.832ZM361.682 21.4922L359.887 23.8962L359.895 23.9022L359.903 23.9082L361.682 21.4922ZM370.461 31.104L367.882 32.6372L367.895 32.6578L367.907 32.6782L370.461 31.104ZM375.002 41.6997L372.074 42.3551L372.08 42.3809L372.086 42.4065L375.002 41.6997ZM376.213 52.2197V55.2197H379.213V52.2197H376.213ZM351.464 52.2197H348.464V55.2197H351.464V52.2197ZM350.935 47.376L347.993 47.9643L348.002 48.0112L348.013 48.0577L350.935 47.376ZM344.426 37.9155L342.682 40.3567L342.698 40.3683L342.715 40.3796L344.426 37.9155ZM336.933 34.8125L336.163 37.712L336.184 37.7176L336.205 37.7229L336.933 34.8125ZM309.838 36.2505L311.112 38.9669L311.146 38.9507L311.18 38.9338L309.838 36.2505ZM305.903 39.0508L308.075 41.1197L308.099 41.0945L308.123 41.0688L305.903 39.0508ZM303.784 42.1538L300.998 41.0396L300.974 41.1007L300.952 41.1628L303.784 42.1538ZM308.4 51.7656L307.224 54.5252L307.231 54.5282L307.238 54.5313L308.4 51.7656ZM327.187 59.1727C327.778 59.2908 328.628 59.4265 329.697 59.5792L330.546 53.6395C329.496 53.4895 328.782 53.3729 328.364 53.2892L327.187 59.1727ZM329.628 59.5686C334.168 60.3252 337.621 60.9048 339.987 61.3076L340.994 55.3926C338.617 54.9881 335.157 54.4072 330.615 53.6502L329.628 59.5686ZM339.987 61.3076C342.269 61.696 345.429 62.361 349.493 63.3143L350.863 57.4728C346.753 56.5088 343.455 55.8115 340.994 55.3926L339.987 61.3076ZM349.501 63.3161C353.573 64.2597 356.549 65.1704 358.525 66.0237L360.903 60.5153C358.439 59.4513 355.058 58.4448 350.855 57.471L349.501 63.3161ZM358.6 66.055C360.722 66.9041 363.206 68.1056 366.06 69.6804L368.959 64.427C365.96 62.7726 363.246 61.4514 360.828 60.4841L358.6 66.055ZM366.079 69.6908C368.824 71.1795 370.66 72.6981 371.785 74.1716L376.554 70.5315C374.752 68.1704 372.149 66.1571 368.94 64.4166L366.079 69.6908ZM371.839 74.241C373.123 75.8249 374.295 77.8682 375.32 80.4286L380.89 78.2003C379.695 75.2106 378.243 72.612 376.5 70.4622L371.839 74.241ZM375.327 80.4463C376.274 82.7725 376.77 85.3848 376.77 88.3208H382.77C382.77 84.6976 382.156 81.3056 380.883 78.1826L375.327 80.4463ZM376.77 88.3208C376.77 93.3512 376.074 97.5991 374.763 101.125L380.387 103.216C382.003 98.8716 382.77 93.8861 382.77 88.3208H376.77ZM374.756 101.146C373.482 104.65 371.673 107.476 369.365 109.697L373.525 114.02C376.565 111.095 378.843 107.462 380.395 103.196L374.756 101.146ZM369.365 109.696C367.105 111.87 364.086 113.69 360.208 115.092L362.247 120.734C366.744 119.109 370.538 116.893 373.524 114.021L369.365 109.696ZM360.208 115.092C356.255 116.52 351.911 117.533 347.164 118.114L347.893 124.07C353.036 123.44 357.824 122.333 362.247 120.734L360.208 115.092ZM347.164 118.114C342.373 118.701 336.698 119 330.122 119V125C336.866 125 342.795 124.694 347.893 124.07L347.164 118.114ZM330.122 119C324.49 119 319.339 118.654 314.661 117.972L313.795 123.909C318.804 124.64 324.249 125 330.122 125V119ZM314.661 117.972C309.929 117.282 305.965 116.405 302.739 115.361L300.892 121.07C304.529 122.247 308.84 123.186 313.795 123.909L314.661 117.972ZM302.739 115.361C299.527 114.322 296.659 112.988 294.117 111.371L290.896 116.433C293.905 118.348 297.243 119.889 300.892 121.07L302.739 115.361ZM294.139 111.384C291.507 109.679 289.405 108.088 287.795 106.617L283.747 111.045C285.669 112.803 288.057 114.593 290.875 116.419L294.139 111.384ZM287.86 106.678C286.373 105.235 285.059 103.507 283.928 101.471L278.683 104.385C280.075 106.89 281.738 109.097 283.682 110.984L287.86 106.678ZM283.965 101.54C282.785 99.2781 281.937 97.4289 281.39 95.971L275.772 98.0778C276.436 99.8491 277.404 101.935 278.646 104.315L283.965 101.54ZM281.418 96.0492C280.936 94.6478 280.518 92.887 280.183 90.7357L274.254 91.6579C274.626 94.0475 275.116 96.1718 275.744 97.9997L281.418 96.0492ZM280.194 90.8088C279.892 88.4963 279.73 86.9106 279.686 85.9833L273.692 86.2687C273.749 87.4605 273.94 89.2553 274.244 91.5848L280.194 90.8088ZM279.686 85.9898C279.638 84.9424 279.613 83.5793 279.613 81.8877H273.613C273.613 83.6271 273.639 85.0895 273.692 86.2622L279.686 85.9898ZM276.613 84.8877H300.832V78.8877H276.613V84.8877ZM297.832 81.8877C297.832 85.4112 298.447 88.6227 299.791 91.4316L305.203 88.8428C304.327 87.0097 303.832 84.7216 303.832 81.8877H297.832ZM299.791 91.4316C301.063 94.0922 302.74 96.3205 304.87 98.0114L308.601 93.3128C307.299 92.2791 306.151 90.8242 305.203 88.8428L299.791 91.4316ZM304.946 98.0703C307.045 99.629 309.565 100.824 312.438 101.708L314.202 95.9735C311.827 95.2427 309.958 94.3189 308.524 93.2539L304.946 98.0703ZM312.438 101.708C315.23 102.567 317.972 103.14 320.659 103.415L321.268 97.4457C319.011 97.2153 316.657 96.7288 314.202 95.9735L312.438 101.708ZM320.659 103.415C323.255 103.68 326.159 103.809 329.365 103.809V97.8086C326.314 97.8086 323.618 97.6854 321.268 97.4457L320.659 103.415ZM329.365 103.809C338.292 103.809 345.298 102.81 349.944 100.458L347.233 95.1048C343.907 96.789 338.097 97.8086 329.365 97.8086V103.809ZM349.97 100.444C352.339 99.2148 354.275 97.577 355.609 95.4674C356.948 93.3481 357.567 90.9281 357.567 88.3208H351.567C351.567 89.9518 351.19 91.2276 350.537 92.2619C349.877 93.3057 348.824 94.2791 347.206 95.1185L349.97 100.444ZM357.567 88.3208C357.567 87.1632 357.447 86.0407 357.149 84.9991L351.38 86.6474C351.486 87.0186 351.567 87.5611 351.567 88.3208H357.567ZM357.163 85.0503C356.813 83.7366 356.118 82.6014 355.175 81.6585L350.932 85.9011C351.2 86.1691 351.313 86.3962 351.366 86.5962L357.163 85.0503ZM355.175 81.6585C354.452 80.9349 353.683 80.2876 352.869 79.7239L349.454 84.657C349.952 85.0015 350.445 85.4137 350.932 85.9011L355.175 81.6585ZM353.082 79.8858C352.005 78.9879 350.552 78.3931 349.062 77.9517L347.358 83.7045C348.593 84.0704 349.108 84.3839 349.241 84.4951L353.082 79.8858ZM349.159 77.9821C347.745 77.5109 346.419 77.1124 345.183 76.79L343.669 82.5957C344.754 82.8788 345.95 83.2372 347.261 83.6742L349.159 77.9821ZM345.183 76.79C343.912 76.4584 342.133 76.0893 339.892 75.6817L338.818 81.5849C341.017 81.9846 342.619 82.3219 343.669 82.5957L345.183 76.79ZM339.892 75.6817C337.639 75.2722 335.579 74.9371 333.713 74.6779L332.888 80.6209C334.654 80.8663 336.63 81.1871 338.818 81.5849L339.892 75.6817ZM333.807 74.6925C332.004 74.3834 329.528 74.0007 326.39 73.5453L325.528 79.483C328.647 79.9358 331.065 80.3099 332.793 80.6063L333.807 74.6925ZM326.399 73.5465C319.638 72.545 313.919 71.4991 309.229 70.4128L307.875 76.2581C312.771 77.3918 318.657 78.4651 325.519 79.4818L326.399 73.5465ZM309.258 70.4197C304.589 69.2894 300.372 67.9461 296.597 66.3973L294.32 71.9484C298.416 73.6288 302.928 75.0605 307.846 76.2512L309.258 70.4197ZM296.627 66.4099C292.911 64.8378 290.114 63.0912 288.122 61.2293L284.025 65.6125C286.675 68.0898 290.134 70.1778 294.29 71.9358L296.627 66.4099ZM288.171 61.2759C286.19 59.3386 284.647 57.0731 283.538 54.455L278.014 56.7959C279.427 60.1317 281.417 63.0631 283.976 65.5659L288.171 61.2759ZM283.561 54.5113C282.518 51.9034 281.959 48.8121 281.959 45.1812H275.959C275.959 49.4213 276.612 53.2928 277.99 56.7397L283.561 54.5113ZM281.959 45.1812C281.959 42.2374 282.373 39.4301 283.191 36.7475L277.452 34.9967C276.454 38.2678 275.959 41.6665 275.959 45.1812H281.959ZM283.182 36.7777C284.011 34.1596 285.452 31.5334 287.576 28.9011L282.907 25.133C280.389 28.2527 278.55 31.5298 277.462 34.9664L283.182 36.7777ZM287.592 28.8813C289.686 26.241 292.302 23.9136 295.473 21.9086L292.266 16.8375C288.575 19.1716 285.439 21.9403 282.891 25.1529L287.592 28.8813ZM295.456 21.9191C298.585 19.9692 302.725 18.3297 307.967 17.0675L306.563 11.2342C300.907 12.5958 296.116 14.4377 292.282 16.827L295.456 21.9191ZM307.967 17.0675C313.144 15.8214 319.033 15.1831 325.656 15.1831V9.18311C318.657 9.18311 312.285 9.85666 306.563 11.2342L307.967 17.0675ZM325.656 15.1831C333.519 15.1831 340.344 16.0439 346.172 17.7157L347.826 11.9484C341.342 10.0882 333.94 9.18311 325.656 9.18311V15.1831ZM346.178 17.7175C352.175 19.4241 356.696 21.5143 359.887 23.8962L363.476 19.0881C359.502 16.1218 354.235 13.7719 347.82 11.9466L346.178 17.7175ZM359.903 23.9082C363.226 26.3539 365.875 29.2616 367.882 32.6372L373.04 29.5708C370.607 25.479 367.403 21.9788 363.46 19.0762L359.903 23.9082ZM367.907 32.6782C370.045 36.1457 371.406 39.3689 372.074 42.3551L377.929 41.0443C377.084 37.2695 375.418 33.4288 373.015 29.5298L367.907 32.6782ZM372.086 42.4065C372.834 45.4886 373.213 48.7569 373.213 52.2197H379.213C379.213 48.316 378.785 44.571 377.918 40.9929L372.086 42.4065ZM376.213 49.2197H351.464V55.2197H376.213V49.2197ZM354.464 52.2197C354.464 50.2982 354.266 48.4531 353.856 46.6943L348.013 48.0577C348.309 49.3262 348.464 50.7103 348.464 52.2197H354.464ZM353.876 46.7876C353.482 44.8149 352.596 42.8332 351.355 40.86L346.276 44.0531C347.255 45.6118 347.782 46.9097 347.993 47.9643L353.876 46.7876ZM351.355 40.86C350.018 38.7317 348.265 36.9292 346.137 35.4514L342.715 40.3796C344.219 41.4247 345.393 42.6495 346.276 44.0531L351.355 40.86ZM346.169 35.4743C343.979 33.9095 341.081 32.757 337.661 31.9021L336.205 37.7229C339.244 38.4826 341.341 39.3987 342.682 40.3567L346.169 35.4743ZM337.703 31.913C334.164 30.9728 330.136 30.5259 325.656 30.5259V36.5259C329.754 36.5259 333.244 36.9367 336.163 37.712L337.703 31.913ZM325.656 30.5259C322.036 30.5259 318.745 30.7877 315.801 31.3329L316.893 37.2326C319.399 36.7686 322.314 36.5259 325.656 36.5259V30.5259ZM315.801 31.3329C312.931 31.8644 310.459 32.5861 308.497 33.5672L311.18 38.9338C312.447 38.3003 314.314 37.7102 316.893 37.2326L315.801 31.3329ZM308.565 33.5341C306.658 34.4279 305.004 35.58 303.683 37.0328L308.123 41.0688C308.82 40.3015 309.789 39.5868 311.112 38.9669L308.565 33.5341ZM303.73 36.9818C302.544 38.2278 301.583 39.5766 300.998 41.0396L306.569 43.268C306.791 42.7128 307.244 41.9929 308.075 41.1197L303.73 36.9818ZM300.952 41.1628C300.478 42.5165 300.254 43.9391 300.254 45.4082H306.254C306.254 44.5564 306.383 43.8093 306.615 43.1449L300.952 41.1628ZM300.254 45.4082C300.254 47.4696 300.91 49.3625 302.209 50.9665C303.467 52.5206 305.215 53.6687 307.224 54.5252L309.577 49.0061C308.154 48.3993 307.33 47.7563 306.872 47.1913C306.455 46.6761 306.254 46.1219 306.254 45.4082H300.254ZM307.238 54.5313C311.091 56.1506 317.88 57.6819 327.3 59.1931L328.251 53.2688C318.8 51.7527 312.673 50.307 309.563 49L307.238 54.5313ZM415.432 117.913L413.291 120.014L413.301 120.024L413.311 120.034L415.432 117.913ZM415.432 98.2354L413.311 96.114L413.301 96.1239L413.291 96.1339L415.432 98.2354ZM433.14 115.792C430.983 117.949 428.444 119 425.347 119V125C430.02 125 434.09 123.327 437.383 120.034L433.14 115.792ZM425.347 119C422.25 119 419.71 117.949 417.553 115.792L413.311 120.034C416.603 123.327 420.673 125 425.347 125V119ZM417.573 115.812C415.452 113.651 414.421 111.127 414.421 108.074H408.421C408.421 112.691 410.064 116.726 413.291 120.014L417.573 115.812ZM414.421 108.074C414.421 105.022 415.452 102.498 417.573 100.337L413.291 96.1339C410.064 99.4223 408.421 103.458 408.421 108.074H414.421ZM417.553 100.357C419.71 98.1999 422.25 97.1484 425.347 97.1484V91.1484C420.673 91.1484 416.603 92.8216 413.311 96.114L417.553 100.357ZM425.347 97.1484C428.444 97.1484 430.983 98.1999 433.14 100.357L437.383 96.114C434.09 92.8216 430.02 91.1484 425.347 91.1484V97.1484ZM433.14 100.357C435.305 102.522 436.348 105.04 436.348 108.074H442.348C442.348 103.44 440.667 99.3982 437.383 96.114L433.14 100.357ZM436.348 108.074C436.348 111.109 435.305 113.627 433.14 115.792L437.383 120.034C440.667 116.75 442.348 112.709 442.348 108.074H436.348Z" fill="url(#paint0_linear_303_3)"/>
</g>
<defs>
<linearGradient id="paint0_linear_303_3" x1="41" y1="-17.0322" x2="291.861" y2="141.253" gradientUnits="userSpaceOnUse">
<stop stop-color="#51D6FB" stop-opacity="0.75"/>
<stop offset="1" stop-color="#BAA5D4"/>
</linearGradient>
<clipPath id="clip0_303_3">
<rect width="444" height="135" fill="white"/>
</clipPath>
</defs>
</svg>
